<?xml version="1.0" encoding="UTF-8" standalone="no"?>
<!-- Created with Inkscape (http://www.inkscape.org/) -->

<svg
   xmlns:dc="http://purl.org/dc/elements/1.1/"
   xmlns:cc="http://creativecommons.org/ns#"
   xmlns:rdf="http://www.w3.org/1999/02/22-rdf-syntax-ns#"
   xmlns:svg="http://www.w3.org/2000/svg"
   xmlns="http://www.w3.org/2000/svg"
   xmlns:sodipodi="http://sodipodi.sourceforge.net/DTD/sodipodi-0.dtd"
   xmlns:inkscape="http://www.inkscape.org/namespaces/inkscape"
   version="1.1"
   id="svg9855"
   xml:space="preserve"
   width="403.49091"
   height="184.94725"
   viewBox="0 0 403.49091 184.94725"
   sodipodi:docname="thermoveri-oblong-profile1-2dims.svg"
   inkscape:version="0.92.4 (5da689c313, 2019-01-14)"><metadata
     id="metadata9861"><rdf:RDF><cc:Work
         rdf:about=""><dc:format>image/svg+xml</dc:format><dc:type
           rdf:resource="http://purl.org/dc/dcmitype/StillImage" /><dc:title></dc:title></cc:Work></rdf:RDF></metadata><defs
     id="defs9859" /><sodipodi:namedview
     pagecolor="#ffffff"
     bordercolor="#666666"
     borderopacity="1"
     objecttolerance="10"
     gridtolerance="10"
     guidetolerance="10"
     inkscape:pageopacity="0"
     inkscape:pageshadow="2"
     inkscape:window-width="1920"
     inkscape:window-height="1137"
     id="namedview9857"
     showgrid="false"
     fit-margin-top="0"
     fit-margin-left="0"
     fit-margin-right="0"
     fit-margin-bottom="0"
     inkscape:zoom="1.5739801"
     inkscape:cx="21.942146"
     inkscape:cy="120.49051"
     inkscape:window-x="-8"
     inkscape:window-y="-8"
     inkscape:window-maximized="1"
     inkscape:current-layer="g9863" /><g
     id="g9863"
     inkscape:groupmode="layer"
     inkscape:label="Oblong1"
     transform="matrix(1.3333333,0,0,-1.3333333,-415.52181,677.53451)">
<g
   id="g10095"
   transform="translate(511.3,425)"><path
     d="M 0,0 V 0.7 L -0.1,1.4 -0.3,2.1 -0.5,2.8 -0.7,3.4 -1,4 -1.4,4.6 -1.8,5.2 -2.2,5.7 -2.7,6.2 -3.2,6.6 -3.8,7 -4.4,7.4 -5,7.7 -5.6,7.9 -6.3,8.1 -7,8.3 H -7.7 L -8.3,8.4 -9,8.3 H -9.7 L -10.4,8.1 -11,7.9 -11.7,7.7 -12.3,7.4 -12.9,7 -13.4,6.6 -14,6.2 -14.5,5.7 -14.9,5.2 -15.3,4.6 -15.7,4 -16,3.4 -16.2,2.8 -16.4,2.1 -16.5,1.4 -16.6,0.7 -16.7,0 l 0.1,-0.6 0.1,-0.7 0.1,-0.7 0.2,-0.7 0.2,-0.6 0.3,-0.6 0.4,-0.6 0.4,-0.6 0.4,-0.5 0.5,-0.5 0.6,-0.4 0.5,-0.4 0.6,-0.4 0.6,-0.3 0.7,-0.2 0.6,-0.2 0.7,-0.2 H -9 l 0.7,-0.1 0.6,0.1 H -7 l 0.7,0.2 0.7,0.2 0.6,0.2 0.6,0.3 0.6,0.4 0.6,0.4 0.5,0.4 0.5,0.5 0.4,0.5 0.4,0.6 0.4,0.6 0.3,0.6 0.2,0.6 0.2,0.7 0.2,0.7 0.1,0.7 V 0"
     style="fill:none;stroke:#000000;stroke-width:0.50999999;stroke-linecap:butt;stroke-linejoin:miter;stroke-miterlimit:10;stroke-dasharray:none;stroke-opacity:1"
     id="path10097"
     inkscape:connector-curvature="0" /></g><g
   id="g10103"
   transform="translate(573.5,478.8)"><path
     style="fill:none;stroke:#000000;stroke-width:0.50999999;stroke-linecap:butt;stroke-linejoin:miter;stroke-miterlimit:10;stroke-dasharray:none;stroke-opacity:1"
     d="M 0,0 -9.3,-1.4 V 1.5 L 0,0"
     id="path10889"
     inkscape:connector-curvature="0" /></g><g
   id="g10107"
   transform="translate(590.7,496.5)"><path
     style="fill:none;stroke:#000000;stroke-width:0.50999999;stroke-linecap:butt;stroke-linejoin:miter;stroke-miterlimit:10;stroke-dasharray:none;stroke-opacity:1"
     d="M 0,0 -9.3,-1.5 V 1.4 L 0,0"
     id="path10897"
     inkscape:connector-curvature="0" /></g><g
   id="g10119"
   transform="translate(333.2,431.6)"><path
     d="M 0,0 9.4,1.4 V -1.4 L 0,0 m 169.8,0 -9.4,-1.4 V 1.4 L 169.8,0"
     style="fill:none;stroke:#000000;stroke-width:0.50999999;stroke-linecap:butt;stroke-linejoin:miter;stroke-miterlimit:10;stroke-dasharray:none;stroke-opacity:1"
     id="path10121"
     inkscape:connector-curvature="0" /></g><g
   id="g10147"
   transform="translate(329.8,461.2)"><path
     d="M 0,0 9.3,1.5 V -1.4 L 0,0 m 176.8,0 -9.3,-1.4 V 1.5 L 176.8,0"
     style="fill:none;stroke:#000000;stroke-width:0.50999999;stroke-linecap:butt;stroke-linejoin:miter;stroke-miterlimit:10;stroke-dasharray:none;stroke-opacity:1"
     id="path10149"
     inkscape:connector-curvature="0" /></g><g
   id="g10155"
   transform="translate(573.5,471)"><path
     style="fill:none;stroke:#000000;stroke-width:0.50999999;stroke-linecap:round;stroke-linejoin:round;stroke-miterlimit:10;stroke-dasharray:none;stroke-opacity:1"
     d="M 0,0 V 10.7"
     id="path10881"
     inkscape:connector-curvature="0" /><path
     style="fill:none;stroke:#000000;stroke-width:0.50999999;stroke-linecap:round;stroke-linejoin:round;stroke-miterlimit:10;stroke-dasharray:none;stroke-opacity:1"
     d="M 0,7.8 H -35.9"
     id="path10157"
     inkscape:connector-curvature="0" /></g><g
   id="g10159"
   transform="translate(590.7,471)"><path
     style="fill:none;stroke:#000000;stroke-width:0.50999999;stroke-linecap:round;stroke-linejoin:round;stroke-miterlimit:10;stroke-dasharray:none;stroke-opacity:1"
     d="M 0,0 V 28.3"
     id="path10875"
     inkscape:connector-curvature="0" /><path
     style="fill:none;stroke:#000000;stroke-width:0.50999999;stroke-linecap:round;stroke-linejoin:round;stroke-miterlimit:10;stroke-dasharray:none;stroke-opacity:1"
     d="M 0,25.5 H -53.1"
     id="path10161"
     inkscape:connector-curvature="0" /></g><g
   id="g10171"
   transform="translate(333.2,427.9)"><path
     d="M 0,0 V 6.5 M 169.8,0 V 6.5 M 0,3.7 h 169.8"
     style="fill:none;stroke:#000000;stroke-width:0.50999999;stroke-linecap:round;stroke-linejoin:round;stroke-miterlimit:10;stroke-dasharray:none;stroke-opacity:1"
     id="path10173"
     inkscape:connector-curvature="0" /></g><g
   id="g10187"
   transform="translate(333.9,421.7)"><path
     d="M 0,0 -0.7,3.3 M 168.6,0 l 0.5,3.3"
     style="fill:none;stroke:#c0c0c0;stroke-width:0.50999999;stroke-linecap:round;stroke-linejoin:round;stroke-miterlimit:10;stroke-dasharray:none;stroke-opacity:1"
     id="path10189"
     inkscape:connector-curvature="0" /></g><g
   id="g10191"
   transform="translate(263.6,453.9)"><path
     style="fill:none;stroke:#c0c0c0;stroke-width:0.50999999;stroke-linecap:round;stroke-linejoin:round;stroke-miterlimit:10;stroke-dasharray:none;stroke-opacity:1"
     d="m 306.3,-2.6 3.6,16.8"
     id="path1220"
     inkscape:connector-curvature="0" /><path
     style="fill:none;stroke:#c0c0c0;stroke-width:0.50999999;stroke-linecap:round;stroke-linejoin:round;stroke-miterlimit:10;stroke-dasharray:none;stroke-opacity:1"
     d="M 327.1,14.2 H 274"
     id="path10193"
     inkscape:connector-curvature="0" /></g><g
   id="g10219"
   transform="translate(329.8,427.9)"><path
     d="M 0,0 V 36.2 M 176.8,0 V 36.2 M 0,33.3 h 176.8"
     style="fill:none;stroke:#000000;stroke-width:0.50999999;stroke-linecap:round;stroke-linejoin:round;stroke-miterlimit:10;stroke-dasharray:none;stroke-opacity:1"
     id="path10221"
     inkscape:connector-curvature="0" /></g><g
   id="g10227"
   transform="translate(573.5,478.8)"><path
     style="fill:#000000;fill-opacity:1;fill-rule:nonzero;stroke:none"
     d="M 0,0 -9.3,-1.4 V 1.5"
     id="path10885"
     inkscape:connector-curvature="0" /></g><g
   id="g10231"
   transform="translate(590.7,496.5)"><path
     style="fill:#000000;fill-opacity:1;fill-rule:nonzero;stroke:none"
     d="M 0,0 -9.3,-1.5 V 1.4"
     id="path10893"
     inkscape:connector-curvature="0" /></g><g
   id="g10243"
   transform="translate(333.2,431.6)"><path
     d="M 0,0 9.4,1.4 V -1.4 M 169.8,0 160.4,-1.4 v 2.8"
     style="fill:#000000;fill-opacity:1;fill-rule:nonzero;stroke:none"
     id="path10245"
     inkscape:connector-curvature="0" /></g><g
   id="g10267"
   transform="translate(329.8,461.2)"><path
     d="M 0,0 9.3,1.5 V -1.4 M 176.8,0 167.5,-1.4 v 2.9"
     style="fill:#000000;fill-opacity:1;fill-rule:nonzero;stroke:none"
     id="path10269"
     inkscape:connector-curvature="0" /></g><g
   id="g10291"
   transform="translate(329.8,425)"><path
     d="M 0,0 H 0.7 L 1.4,-0.2 2,-0.5 2.6,-0.9 3.2,-1.4 3.6,-2 3.9,-2.6 4.1,-3.3 m 168.6,0 0.2,0.7 0.3,0.6 0.5,0.6 0.5,0.5 0.6,0.4 0.6,0.3 0.7,0.2 h 0.7 m -9.4,-28.3 5.3,25 m -168.6,0 5.3,-25 m 40.7,-26.9 h 76.6 m -117.3,26.9 1.2,-2.6 1.4,-2.5 1.5,-2.4 1.7,-2.4 1.9,-2.2 1.9,-2.1 2.2,-1.9 2.2,-1.8 2.3,-1.7 2.5,-1.5 2.5,-1.3 2.6,-1.2 2.7,-1 2.8,-0.8 2.8,-0.7 2.8,-0.5 2.9,-0.2 2.8,-0.1 m 76.6,0 2.8,0.1 2.9,0.2 2.8,0.5 2.8,0.7 2.8,0.8 2.7,1 2.6,1.2 2.5,1.3 2.5,1.5 2.3,1.7 2.3,1.8 2.1,1.9 1.9,2.1 1.9,2.2 1.7,2.4 1.5,2.4 1.4,2.5 1.2,2.6 m -117.3,25 v 0.7 0.6 0.6 0.5 0.4 0.3 0.2 m 76.6,-3.3 v 0.7 0.6 0.6 0.5 0.4 0.3 0.2 m 0,-3.3 H 50.1 m 76.6,-25 v 25 m -76.6,-25 v 25 m 76.6,-25 H 50.1 m 76.6,0 h 2.6 2.7 2.6 2.6 2.6 2.5 2.4 2.3 2.3 2.2 2 2 1.8 1.7 1.5 1.4 1.3 1.1 0.9 0.8 0.6 0.4 0.3 0.1 m -117.3,0 H 47.5 44.8 42.2 39.6 37.1 34.6 32.1 29.8 27.5 25.4 23.3 21.4 19.5 17.8 16.3 14.9 13.6 12.5 11.6 10.8 10.2 9.8 9.5 9.4 m 40.7,25 H 47.3 44.5 41.7 38.9 36.2 33.5 30.9 28.4 25.9 23.6 21.3 19.1 17.1 15.2 13.4 11.8 10.3 8.9 7.8 6.7 5.9 5.2 4.7 4.3 4.1 m 122.6,0 h 2.8 2.8 2.8 2.8 2.7 2.7 2.6 2.5 2.5 2.4 2.2 2.2 2 1.9 1.8 1.6 1.5 1.4 1.1 1.1 0.8 0.7 0.5 0.4 0.2 m -122.6,-25 v -2.5 -2.5 -2.3 -2.3 -2.2 -2 -1.9 -1.8 -1.7 -1.5 -1.3 -1.2 -1.1 -0.8 -0.7 -0.6 -0.3 -0.2 m 76.6,26.9 v -2.5 -2.5 -2.3 -2.3 -2.2 -2 -1.9 -1.8 -1.7 -1.5 -1.3 -1.2 -1.1 -0.8 -0.7 -0.6 -0.3 -0.2"
     style="fill:none;stroke:#000000;stroke-width:0.70899999;stroke-linecap:round;stroke-linejoin:round;stroke-miterlimit:10;stroke-dasharray:none;stroke-opacity:1"
     id="path10293"
     inkscape:connector-curvature="0" /></g><g
   id="g10295"
   transform="translate(524.5,425)"><path
     d="M 0,0 V 0 M -212.6,0 V 0"
     style="fill:none;stroke:#0080c0;stroke-width:0.50999999;stroke-linecap:round;stroke-linejoin:round;stroke-miterlimit:10;stroke-dasharray:none;stroke-opacity:1"
     id="path10297"
     inkscape:connector-curvature="0" /></g><g
   id="g10299"
   transform="translate(311.9,425)"
   style="stroke:#000000;stroke-opacity:1"><path
     d="M 0,0 H 212.6"
     style="fill:none;stroke:#000000;stroke-width:0.50999999;stroke-linecap:round;stroke-linejoin:round;stroke-miterlimit:10;stroke-dasharray:none;stroke-opacity:1"
     id="path10301"
     inkscape:connector-curvature="0" /></g><g
   id="g10307"
   transform="translate(569.9,451.3)"><path
     d="m 0,0 1.1,3.5 1.6,3.2 2.2,2.9 2.6,2.5 3,2 3.2,1.5 3.5,0.9 3.6,0.3 M -5.1,-24.1 0,0 M -39.2,16.8 H 44 M -35.6,0 h 4.8 6.7 6 5.1 4.3 3.4 2.6 1.8 0.8 0.1"
     style="fill:none;stroke:#000000;stroke-width:0.70899999;stroke-linecap:round;stroke-linejoin:round;stroke-miterlimit:10;stroke-dasharray:none;stroke-opacity:1"
     id="path10309"
     inkscape:connector-curvature="0" /></g>



<text
   y="-465.55765"
   x="414.45062"
   transform="scale(0.99959496,-1.0004052)"
   style="font-variant:normal;font-weight:normal;font-stretch:normal;font-size:9.99594975px;font-family:'Century Gothic';-inkscape-font-specification:CenturyGothic;writing-mode:lr-tb;fill:#000000;fill-opacity:1;fill-rule:nonzero;stroke:none;stroke-width:0.99959493"
   id="text6652-9"><tspan
     style="stroke-width:0.99959493"
     x="414.45062"
     sodipodi:role="line"
     id="tspan6650-91"
     y="-465.55765">C2</tspan></text>

<text
   y="-500.58478"
   x="559.1084"
   transform="scale(0.99959496,-1.0004052)"
   style="font-variant:normal;font-weight:normal;font-stretch:normal;font-size:9.99594975px;font-family:'Century Gothic';-inkscape-font-specification:CenturyGothic;writing-mode:lr-tb;fill:#000000;fill-opacity:1;fill-rule:nonzero;stroke:none;stroke-width:0.99959493"
   id="text6652-9-6"><tspan
     style="stroke-width:0.99959493"
     x="559.1084"
     sodipodi:role="line"
     id="tspan6650-91-9"
     y="-500.58478">C2</tspan></text>

<text
   y="-435.47025"
   x="419.39435"
   transform="scale(0.99959496,-1.0004052)"
   style="font-variant:normal;font-weight:normal;font-stretch:normal;font-size:9.99594975px;font-family:'Century Gothic';-inkscape-font-specification:CenturyGothic;writing-mode:lr-tb;fill:#000000;fill-opacity:1;fill-rule:nonzero;stroke:none;stroke-width:0.99959493"
   id="text6652-3"><tspan
     style="stroke-width:0.99959493"
     x="419.39435"
     sodipodi:role="line"
     id="tspan6650-1"
     y="-435.47025">L</tspan></text>

<text
   y="-482.62213"
   x="554.42474"
   transform="scale(0.99959496,-1.0004052)"
   style="font-variant:normal;font-weight:normal;font-stretch:normal;font-size:9.99594975px;font-family:'Century Gothic';-inkscape-font-specification:CenturyGothic;writing-mode:lr-tb;fill:#000000;fill-opacity:1;fill-rule:nonzero;stroke:none;stroke-width:0.99959493"
   id="text6652-3-4"><tspan
     style="stroke-width:0.99959493"
     x="554.42474"
     sodipodi:role="line"
     id="tspan6650-1-4"
     y="-482.62213">L</tspan></text>




<path
   style="fill:none;stroke:#000000;stroke-width:0.33986881;stroke-linecap:round;stroke-linejoin:round;stroke-miterlimit:10;stroke-dasharray:none;stroke-opacity:1"
   d="M 528.13675,446.83675 510.3,429"
   id="path308-7-4"
   inkscape:connector-curvature="0" /><path
   style="fill:#000000;fill-opacity:1;fill-rule:nonzero;stroke:none;stroke-width:0.99999994"
   d="m 528.03509,446.73509 -5.65685,-7.63676 -2.05061,2.05061"
   id="path470-9-1"
   inkscape:connector-curvature="0" /></g></svg>