<?xml version="1.0" encoding="UTF-8" standalone="no"?>
<!-- Created with Inkscape (http://www.inkscape.org/) -->

<svg
   xmlns:dc="http://purl.org/dc/elements/1.1/"
   xmlns:cc="http://creativecommons.org/ns#"
   xmlns:rdf="http://www.w3.org/1999/02/22-rdf-syntax-ns#"
   xmlns:svg="http://www.w3.org/2000/svg"
   xmlns="http://www.w3.org/2000/svg"
   xmlns:sodipodi="http://sodipodi.sourceforge.net/DTD/sodipodi-0.dtd"
   xmlns:inkscape="http://www.inkscape.org/namespaces/inkscape"
   version="1.1"
   id="svg6636"
   xml:space="preserve"
   width="334.96716"
   height="239.62027"
   viewBox="0 0 334.96716 239.62026"
   sodipodi:docname="thermoveri-round-profile3-2dims.svg"
   inkscape:version="0.92.4 (5da689c313, 2019-01-14)"><metadata
     id="metadata6642"><rdf:RDF><cc:Work
         rdf:about=""><dc:format>image/svg+xml</dc:format><dc:type
           rdf:resource="http://purl.org/dc/dcmitype/StillImage" /><dc:title /></cc:Work></rdf:RDF></metadata><defs
     id="defs6640" /><sodipodi:namedview
     pagecolor="#ffffff"
     bordercolor="#666666"
     borderopacity="1"
     objecttolerance="10"
     gridtolerance="10"
     guidetolerance="10"
     inkscape:pageopacity="0"
     inkscape:pageshadow="2"
     inkscape:window-width="1920"
     inkscape:window-height="1137"
     id="namedview6638"
     showgrid="false"
     fit-margin-top="0"
     fit-margin-left="0"
     fit-margin-right="0"
     fit-margin-bottom="0"
     inkscape:zoom="1.189304"
     inkscape:cx="3.8356013"
     inkscape:cy="172.15697"
     inkscape:window-x="-8"
     inkscape:window-y="-8"
     inkscape:window-maximized="1"
     inkscape:current-layer="g6644" /><g
     id="g6644"
     inkscape:groupmode="layer"
     inkscape:label="Oblong3"
     transform="matrix(1.3333333,0,0,-1.3333333,-71.378898,670.34215)"><text
   transform="matrix(0.99919,0,0,-1,149.75056,459.6909)"
   style="font-variant:normal;font-weight:normal;font-stretch:normal;font-size:10px;font-family:'Century Gothic';-inkscape-font-specification:CenturyGothic;writing-mode:lr-tb;fill:#000000;fill-opacity:1;fill-rule:nonzero;stroke:none"
   id="text6652"><tspan
     x="0 8.123415 13.658927"
     y="0"
     sodipodi:role="line"
     id="tspan6650">C1 </tspan></text>


<text
   transform="matrix(0.49981034,0.8656915,0.86602405,-0.50000234,87.871968,380.39125)"
   style="font-variant:normal;font-weight:normal;font-stretch:normal;font-size:9.99995327px;font-family:'Century Gothic';-inkscape-font-specification:CenturyGothic;writing-mode:lr-tb;fill:#000000;fill-opacity:1;fill-rule:nonzero;stroke:none"
   id="text6656"><tspan
     x="0 3.0088301 8.0068865 14.854224 16.853447 23.35092"
     y="0"
     sodipodi:role="line"
     id="tspan6654">r_die </tspan></text>


<text
   transform="matrix(0.73874986,0.6729362,0.67340961,-0.73926957,133.26114,380.80883)"
   style="font-variant:normal;font-weight:normal;font-stretch:normal;font-size:10.00000572px;font-family:'Century Gothic';-inkscape-font-specification:CenturyGothic;writing-mode:lr-tb;fill:#000000;fill-opacity:1;fill-rule:nonzero;stroke:none"
   id="text6660"><tspan
     x="0 6.0657363 11.062224 14.200019"
     y="0"
     sodipodi:role="line"
     id="tspan6658">R_f </tspan></text>


<text
   transform="matrix(0.16929347,0.98498835,0.98554913,-0.16938985,136.36054,326.47402)"
   style="font-variant:normal;font-weight:normal;font-stretch:normal;font-size:10.00000858px;font-family:'Century Gothic';-inkscape-font-specification:CenturyGothic;writing-mode:lr-tb;fill:#000000;fill-opacity:1;fill-rule:nonzero;stroke:none"
   id="text6664"><tspan
     x="0 6.0665517 11.063711 17.879837"
     y="0"
     sodipodi:role="line"
     id="tspan6662">R_b </tspan></text>


<text
   transform="matrix(0,0.999659,1,0,65.7572,368.86496)"
   style="font-variant:normal;font-weight:normal;font-stretch:normal;font-size:10px;font-family:'Century Gothic';-inkscape-font-specification:CenturyGothic;writing-mode:lr-tb;fill:#000000;fill-opacity:1;fill-rule:nonzero;stroke:none"
   id="text6668"><tspan
     x="0 7.4374628 13.935246 20.75292 24.141766 30.239685"
     y="0"
     sodipodi:role="line"
     id="tspan6666">Depth </tspan></text>


<text
   transform="matrix(0.999009,0,0,-1,151.78475,422.3118)"
   style="font-variant:normal;font-weight:normal;font-stretch:normal;font-size:10px;font-family:'Century Gothic';-inkscape-font-specification:CenturyGothic;writing-mode:lr-tb;fill:#000000;fill-opacity:1;fill-rule:nonzero;stroke:none"
   id="text6672"><tspan
     x="0 9.5904865"
     y="0"
     sodipodi:role="line"
     id="tspan6670">W </tspan></text>




<g
   id="g6880"
   transform="translate(211.4,412.1)"><path
     d="M 0,0 V 0.7 L -0.1,1.4 -0.2,2.1 -0.4,2.8 -0.7,3.4 -1,4 -1.3,4.6 -1.7,5.2 -2.2,5.7 -2.7,6.2 -3.2,6.7 -3.8,7.1 -4.4,7.5 -5,7.8 -5.6,8 -6.3,8.3 -7,8.4 -7.6,8.5 H -8.3 -9 -9.7 L -10.4,8.3 -11.1,8.2 -11.7,7.9 -12.4,7.6 -13,7.3 -13.6,6.9 -14.1,6.5 -14.6,6 -15.1,5.5 -15.5,4.9 -15.9,4.3 -16.2,3.7 -16.5,3.1 -16.7,2.4 -16.9,1.7 -17,1.1 V 0.4 -0.3 -1 l 0.1,-0.7 0.2,-0.7 0.2,-0.6 0.3,-0.7 0.3,-0.6 0.4,-0.6 0.4,-0.5 0.5,-0.6 0.5,-0.4 0.5,-0.5 0.6,-0.4 0.6,-0.3 0.7,-0.3 0.6,-0.2 0.7,-0.2 0.7,-0.1 0.7,-0.1 h 0.7 0.7 l 0.6,0.1 0.7,0.2 0.7,0.2 0.6,0.3 0.6,0.3 0.6,0.3 0.6,0.4 0.5,0.5 0.5,0.5 0.5,0.5 0.4,0.6 0.3,0.6 0.3,0.6 0.3,0.7 0.2,0.6 0.1,0.7 0.1,0.7 V 0"
     style="fill:none;stroke:#000000;stroke-width:0.50999999;stroke-linecap:butt;stroke-linejoin:miter;stroke-miterlimit:10;stroke-dasharray:none;stroke-opacity:1"
     id="path6882"
     inkscape:connector-curvature="0" /></g><g
   id="g6888"
   transform="translate(110.1,408.7)"><path
     d="M 0,0 -0.1,0.6 -0.3,1 -0.6,1.5 -0.9,1.9 -1.2,2.3 -1.7,2.6 -2.1,2.9 -2.6,3.1 -3.1,3.3 -3.6,3.4 h -0.5 m 11.3,-37.1 0.3,-1 0.3,-1 0.3,-0.9 0.4,-0.9 0.5,-0.9 0.5,-0.9 0.6,-0.8 0.6,-0.8 0.6,-0.8 0.7,-0.7 0.8,-0.7 0.8,-0.6 0.8,-0.6 0.8,-0.6 0.9,-0.4 0.9,-0.5 m 0,0 1.9,-0.8 1.9,-0.7 2,-0.7 1.9,-0.6 2,-0.6 2,-0.5 2,-0.5 2,-0.4 2.1,-0.4 2,-0.3 2.1,-0.2 2,-0.2 2.1,-0.1 2,-0.1 h 2.1 l 2,0.1 2.1,0.1 2.1,0.2 2,0.2 2,0.3 2.1,0.4 2,0.4 2,0.5 2,0.5 2,0.6 1.9,0.6 2,0.7 1.9,0.7 1.9,0.8"
     style="fill:none;stroke:#000000;stroke-width:0.50999999;stroke-linecap:butt;stroke-linejoin:miter;stroke-miterlimit:10;stroke-dasharray:none;stroke-opacity:1"
     id="path6890"
     inkscape:connector-curvature="0" /></g><g
   id="g6892"
   transform="translate(109.4,420.1)"><path
     d="M 0,0 9.4,1.4 V -1.4 L 0,0 M 93.5,0 84.1,-1.4 V 1.4 L 93.5,0"
     style="fill:none;stroke:#000000;stroke-width:0.50999999;stroke-linecap:butt;stroke-linejoin:miter;stroke-miterlimit:10;stroke-dasharray:none;stroke-opacity:1"
     id="path6894"
     inkscape:connector-curvature="0" /></g><g
   id="g6900"
   transform="translate(260.4,471.3)"><path
     style="fill:none;stroke:#000000;stroke-width:0.50999999;stroke-linecap:butt;stroke-linejoin:miter;stroke-miterlimit:10;stroke-dasharray:none;stroke-opacity:1"
     d="M 0,0 -9.3,-1.4 V 1.5 L 0,0"
     id="path7803"
     inkscape:connector-curvature="0" /><path
     style="fill:none;stroke:#000000;stroke-width:0.50999999;stroke-linecap:butt;stroke-linejoin:miter;stroke-miterlimit:10;stroke-dasharray:none;stroke-opacity:1"
     d="M 15.6,20.5 6.2,19.1 V 22 l 9.4,-1.5"
     id="path7799"
     inkscape:connector-curvature="0" /></g><g
   id="g6908"
   transform="translate(109.4,440.5)"><path
     d="M 0,0 9.5,-0.1 9,-2.9 0,0 m -3.9,-0.3 -8.5,-4.1 -0.9,2.7 9.4,1.4 M 0,0 H -0.5 -1 L -1.5,-0.1 H -2 -2.4 L -2.9,-0.2 H -3.4 L -3.9,-0.3 M 16.2,-5.1 15.1,-4.4 14,-3.7 12.8,-3.1 11.6,-2.5 10.4,-2 9.2,-1.5 7.9,-1.1 6.6,-0.8 5.3,-0.5 4,-0.3 2.7,-0.1 H 1.4 L 0,0 m -3.9,-0.3 -1.3,-0.2 -1.3,-0.3 -1.3,-0.3 -1.3,-0.4 -1.2,-0.5 -1.3,-0.5 -1.2,-0.6 -1.1,-0.6 -1.2,-0.7 -1.1,-0.7 -1,-0.8 -1.1,-0.8 -1,-0.9"
     style="fill:none;stroke:#000000;stroke-width:0.50999999;stroke-linecap:butt;stroke-linejoin:miter;stroke-miterlimit:10;stroke-dasharray:none;stroke-opacity:1"
     id="path6910"
     inkscape:connector-curvature="0" /></g><g
   id="g6912"
   transform="translate(121.4,367)"><path
     d="M 0,0 7.9,5.3 5.9,7.4 0,0"
     style="fill:none;stroke:#000000;stroke-width:0.50999999;stroke-linecap:butt;stroke-linejoin:miter;stroke-miterlimit:10;stroke-dasharray:none;stroke-opacity:1"
     id="path6914"
     inkscape:connector-curvature="0" /></g><g
   id="g6916"
   transform="translate(108.1,411.5)"><path
     d="M 0,0 -5.9,-7.4 -3.4,-8.8 0,0"
     style="fill:none;stroke:#000000;stroke-width:0.50999999;stroke-linecap:butt;stroke-linejoin:miter;stroke-miterlimit:10;stroke-dasharray:none;stroke-opacity:1"
     id="path6918"
     inkscape:connector-curvature="0" /></g><g
   id="g6920"
   transform="translate(143.9,357.9)"><path
     d="M 0,0 -3,-9 -0.2,-9.5 0,0"
     style="fill:none;stroke:#000000;stroke-width:0.50999999;stroke-linecap:butt;stroke-linejoin:miter;stroke-miterlimit:10;stroke-dasharray:none;stroke-opacity:1"
     id="path6922"
     inkscape:connector-curvature="0" /></g><g
   id="g6924"
   transform="translate(67.9,412.1)"><path
     d="M 0,0 1.4,-9.3 H -1.5 L 0,0 m 0,-55.3 -1.5,9.4 H 1.4 L 0,-55.3"
     style="fill:none;stroke:#000000;stroke-width:0.50999999;stroke-linecap:butt;stroke-linejoin:miter;stroke-miterlimit:10;stroke-dasharray:none;stroke-opacity:1"
     id="path6926"
     inkscape:connector-curvature="0" /></g><g
   id="g6932"
   transform="translate(106,457.5)"><path
     d="M 0,0 9.3,1.4 V -1.5 L 0,0 M 100.3,0 91,-1.5 V 1.4 L 100.3,0"
     style="fill:none;stroke:#000000;stroke-width:0.50999999;stroke-linecap:butt;stroke-linejoin:miter;stroke-miterlimit:10;stroke-dasharray:none;stroke-opacity:1"
     id="path6934"
     inkscape:connector-curvature="0" /></g><g
   id="g6944"
   transform="translate(219.9,412.1)"><path
     d="M 0,0 V -0.3 M -13.6,0 h -100.3"
     style="fill:none;stroke:#000000;stroke-width:0.50999999;stroke-linecap:round;stroke-linejoin:round;stroke-miterlimit:10;stroke-dasharray:none;stroke-opacity:1"
     id="path6946"
     inkscape:connector-curvature="0" /></g><g
   id="g6948"
   transform="translate(109.4,414.9)"><path
     d="M 0,0 V 8 M 93.5,0 V 8 M 0,5.2 h 93.5"
     style="fill:none;stroke:#000000;stroke-width:0.50999999;stroke-linecap:round;stroke-linejoin:round;stroke-miterlimit:10;stroke-dasharray:none;stroke-opacity:1"
     id="path6950"
     inkscape:connector-curvature="0" /></g><g
   id="g6956"
   transform="translate(260.4,466.4)"><path
     style="fill:none;stroke:#000000;stroke-width:0.50999999;stroke-linecap:round;stroke-linejoin:round;stroke-miterlimit:10;stroke-dasharray:none;stroke-opacity:1"
     d="M 0,0 V 7.7"
     id="path7787"
     inkscape:connector-curvature="0" /><path
     style="fill:none;stroke:#000000;stroke-width:0.50999999;stroke-linecap:round;stroke-linejoin:round;stroke-miterlimit:10;stroke-dasharray:none;stroke-opacity:1"
     d="M 0,4.9 H -36.9"
     id="path7783"
     inkscape:connector-curvature="0" /><path
     style="fill:none;stroke:#000000;stroke-width:0.50999999;stroke-linecap:round;stroke-linejoin:round;stroke-miterlimit:10;stroke-dasharray:none;stroke-opacity:1"
     d="M 15.6,0 V 28.3"
     id="path7781"
     inkscape:connector-curvature="0" /><path
     style="fill:none;stroke:#000000;stroke-width:0.50999999;stroke-linecap:round;stroke-linejoin:round;stroke-miterlimit:10;stroke-dasharray:none;stroke-opacity:1"
     d="M 15.6,25.4 H -36.9"
     id="path6958"
     inkscape:connector-curvature="0" /></g><g
   id="g6964"
   transform="translate(109.4,425.2)"><path
     d="M 0,0 V 18.1 M -2,1 -4.3,17.8"
     style="fill:none;stroke:#000000;stroke-width:0.50999999;stroke-linecap:round;stroke-linejoin:round;stroke-miterlimit:10;stroke-dasharray:none;stroke-opacity:1"
     id="path6966"
     inkscape:connector-curvature="0" /></g><g
   id="g6968"
   transform="translate(121.4,367)"><path
     d="M 0,0 25.8,23.6"
     style="fill:none;stroke:#000000;stroke-width:0.50999999;stroke-linecap:round;stroke-linejoin:round;stroke-miterlimit:10;stroke-dasharray:none;stroke-opacity:1"
     id="path6970"
     inkscape:connector-curvature="0" /></g><g
   id="g6972"
   transform="translate(108.1,411.5)"><path
     d="M 0,0 -19.8,-34.6"
     style="fill:none;stroke:#000000;stroke-width:0.50999999;stroke-linecap:round;stroke-linejoin:round;stroke-miterlimit:10;stroke-dasharray:none;stroke-opacity:1"
     id="path6974"
     inkscape:connector-curvature="0" /></g><g
   id="g6976"
   transform="translate(143.9,357.9)"><path
     d="M 0,0 -5.9,-34.6"
     style="fill:none;stroke:#000000;stroke-width:0.50999999;stroke-linecap:round;stroke-linejoin:round;stroke-miterlimit:10;stroke-dasharray:none;stroke-opacity:1"
     id="path6978"
     inkscape:connector-curvature="0" /></g><g
   id="g6980"
   transform="translate(89.5,412.1)"><path
     d="M 0,0 H -24.5 M 63.8,-55.3 H -24.5 M -21.6,0 v -55.3"
     style="fill:none;stroke:#000000;stroke-width:0.50999999;stroke-linecap:round;stroke-linejoin:round;stroke-miterlimit:10;stroke-dasharray:none;stroke-opacity:1"
     id="path6982"
     inkscape:connector-curvature="0" /></g><g
   id="g6984"
   transform="translate(109.473,412.1653)"><path
     d="M 0,0 1.66,-7.809"
     style="fill:none;stroke:#c0c0c0;stroke-width:0.50999999;stroke-linecap:round;stroke-linejoin:round;stroke-miterlimit:10;stroke-dasharray:43.2, 3.6, 3.6, 3.6;stroke-dashoffset:0;stroke-opacity:1"
     id="path6986"
     inkscape:connector-curvature="0" /></g><g
   id="g6988"
   transform="translate(109.4,412.1)"><path
     style="fill:none;stroke:#c0c0c0;stroke-width:0.50999999;stroke-linecap:round;stroke-linejoin:round;stroke-miterlimit:10;stroke-dasharray:none;stroke-opacity:1"
     d="M 0,0 -1.6,11.2"
     id="path7809"
     inkscape:connector-curvature="0" /><path
     style="fill:none;stroke:#c0c0c0;stroke-width:0.50999999;stroke-linecap:round;stroke-linejoin:round;stroke-miterlimit:10;stroke-dasharray:none;stroke-opacity:1"
     d="M 93.5,0 91.6,-9"
     id="path7807"
     inkscape:connector-curvature="0" /></g><g
   id="g6996"
   transform="translate(276,463.5)"><path
     style="fill:none;stroke:#c0c0c0;stroke-width:0.50999999;stroke-linecap:round;stroke-linejoin:round;stroke-miterlimit:10;stroke-dasharray:none;stroke-opacity:1"
     d="M 0,0 H -52.5"
     id="path8107"
     inkscape:connector-curvature="0" /><path
     style="fill:none;stroke:#c0c0c0;stroke-width:0.50999999;stroke-linecap:round;stroke-linejoin:round;stroke-miterlimit:10;stroke-dasharray:none;stroke-opacity:1"
     d="m -18,-17 2.4,17"
     id="path8105"
     inkscape:connector-curvature="0" /></g><g
   id="g7016"
   transform="translate(106,414.9)"><path
     d="M 0,0 V 45.4 M 100.3,0 V 45.4 M 0,42.6 h 100.3"
     style="fill:none;stroke:#000000;stroke-width:0.50999999;stroke-linecap:round;stroke-linejoin:round;stroke-miterlimit:10;stroke-dasharray:none;stroke-opacity:1"
     id="path7018"
     inkscape:connector-curvature="0" /></g><g
   id="g7028"
   transform="translate(109.4,420.1)"><path
     d="M 0,0 9.4,1.4 V -1.4 M 93.5,0 84.1,-1.4 v 2.8"
     style="fill:#000000;fill-opacity:1;fill-rule:nonzero;stroke:none"
     id="path7030"
     inkscape:connector-curvature="0" /></g><g
   id="g7036"
   transform="translate(260.4,471.3)"><path
     style="fill:#000000;fill-opacity:1;fill-rule:nonzero;stroke:none"
     d="M 0,0 -9.3,-1.4 V 1.5"
     id="path7795"
     inkscape:connector-curvature="0" /><path
     style="fill:#000000;fill-opacity:1;fill-rule:nonzero;stroke:none"
     d="M 15.6,20.5 6.2,19.1 V 22"
     id="path7791"
     inkscape:connector-curvature="0" /></g><g
   id="g7044"
   transform="translate(109.4,440.5)"><path
     d="M 0,0 9.5,-0.1 9,-2.9 m -12.9,2.6 -8.5,-4.1 -0.9,2.7"
     style="fill:#000000;fill-opacity:1;fill-rule:nonzero;stroke:none"
     id="path7046"
     inkscape:connector-curvature="0" /></g><g
   id="g7048"
   transform="translate(121.4,367)"><path
     d="m 0,0 7.9,5.3 -2,2.1"
     style="fill:#000000;fill-opacity:1;fill-rule:nonzero;stroke:none"
     id="path7050"
     inkscape:connector-curvature="0" /></g><g
   id="g7052"
   transform="translate(108.1,411.5)"><path
     d="m 0,0 -5.9,-7.4 2.5,-1.4"
     style="fill:#000000;fill-opacity:1;fill-rule:nonzero;stroke:none"
     id="path7054"
     inkscape:connector-curvature="0" /></g><g
   id="g7056"
   transform="translate(143.9,357.9)"><path
     d="m 0,0 -3,-9 2.8,-0.5"
     style="fill:#000000;fill-opacity:1;fill-rule:nonzero;stroke:none"
     id="path7058"
     inkscape:connector-curvature="0" /></g><g
   id="g7060"
   transform="translate(67.9,412.1)"><path
     d="m 0,0 1.4,-9.3 h -2.9 m 1.5,-46 -1.5,9.4 h 2.9"
     style="fill:#000000;fill-opacity:1;fill-rule:nonzero;stroke:none"
     id="path7062"
     inkscape:connector-curvature="0" /></g><g
   id="g7068"
   transform="translate(106,457.5)"><path
     d="M 0,0 9.3,1.4 V -1.5 M 100.3,0 91,-1.5 v 2.9"
     style="fill:#000000;fill-opacity:1;fill-rule:nonzero;stroke:none"
     id="path7070"
     inkscape:connector-curvature="0" /></g><g
   id="g7084"
   transform="translate(127.1,362.9)"><path
     d="m 0,0 -1.6,0.8 -1.5,1 -1.4,1.1 -1.2,1.3 -1.2,1.4 -1,1.5 -0.8,1.6 -0.6,1.6 -0.5,1.8 M 58.1,0 54.6,-1.4 51.1,-2.6 47.5,-3.7 43.9,-4.5 40.2,-5.2 36.5,-5.7 32.8,-6 29.1,-6.1 25.3,-6 21.6,-5.7 17.9,-5.2 14.2,-4.5 10.6,-3.7 7,-2.6 3.5,-1.4 0,0 M 79.2,49.2 H 79.1 78.9 78.4 77.8 77 76.1 75 h -1.3 -1.4 -1.6 -1.8 -1.8 -2 -2.2 -2.2 -2.4 -2.5 -2.5 -2.7 -2.7 -2.8 -2.8 -2.9 -2.9 -3 -3 -2.9 -3 -3 H 18.7 15.8 13 10.2 7.5 4.8 2.3 -0.2 -2.6 -4.8 -6.9 -9 h -1.8 -1.8 -1.5 -1.5 -1.3 -1.1 -0.9 -0.8 -0.6 -0.5 -0.2 -0.1 m 100.3,0 h 13.6 m -127.5,0 h 13.6 M 67.9,12.1 67.4,10.3 66.8,8.7 66,7.1 65,5.6 63.9,4.2 62.6,2.9 61.2,1.8 59.7,0.8 58.1,0 m 17,45.8 -7.2,-33.7 m -77.7,0 -7.2,33.7 m 96.2,3.4 H 78.5 L 77.8,49 77.1,48.7 76.6,48.3 76,47.8 75.6,47.2 75.3,46.5 75.1,45.8 m -92.1,0 -0.2,0.7 -0.3,0.7 -0.4,0.6 -0.5,0.5 -0.6,0.4 -0.7,0.3 -0.7,0.2 h -0.7 m 89,-37.1 H 67.8 67.5 67.1 66.5 65.7 64.8 63.7 62.5 61.1 59.5 57.9 56 54.1 52.1 49.9 47.7 45.4 43 40.6 38.1 35.5 32.9 30.4 27.8 25.2 22.6 20.1 17.5 15.1 12.7 10.4 8.2 6 4 2.1 0.3 -1.4 -3 -4.4 -5.6 -6.7 -7.6 -8.4 -9 -9.4 -9.7 -9.8 M 75.1,45.8 H 75 74.7 74.3 73.7 72.9 72 70.9 69.6 68.2 66.6 64.9 63.1 61.1 59 56.8 54.5 52.1 49.6 47 44.3 41.6 38.9 36.1 33.3 30.5 27.6 24.8 22 19.2 16.5 13.8 11.1 8.5 6 3.6 1.3 -0.9 -3 h -2 -1.8 -1.7 -1.6 -1.4 -1.2 -1.2 -0.9 -0.8 -0.6 -0.4 -0.3 -0.1 M 58.1,0 h -0.1 -0.3 -0.4 -0.6 -0.8 -1 -1.1 -1.3 -1.4 -1.5 -1.7 -1.8 -1.9 -2 -2 -2.2 -2.2 -2.2 -2.3 -2.2 -2.3 -2.3 -2.2 -2.2 -2.2 -2 -2 H 12 10.2 8.5 7 5.6 4.3 3.2 2.2 1.4 0.8 0.4 0.1 0"
     style="fill:none;stroke:#000000;stroke-width:0.70899999;stroke-linecap:round;stroke-linejoin:round;stroke-miterlimit:10;stroke-dasharray:none;stroke-opacity:1"
     id="path7086"
     inkscape:connector-curvature="0" /></g><g
   id="g7088"
   transform="translate(92.4,412.1)"><path
     d="M 0,0 V 0 M 127.5,0 V 0"
     style="fill:none;stroke:#000000;stroke-width:0.70899999;stroke-linecap:round;stroke-linejoin:round;stroke-miterlimit:10;stroke-dasharray:none;stroke-opacity:1"
     id="path7090"
     inkscape:connector-curvature="0" /></g><g
   id="g7108"
   transform="translate(279,463.5)"><path
     d="m 0,0 h -0.5 -1.3 -2.2 -3 -4 -4.7 -5.6 -6.4 -7.2 -7.9 -8.7 -8.4 M 0,0 h 25.4 m -46.2,-16.9 -5.3,-24.9 M 0,0 l -3.6,-0.3 -3.5,-0.9 -3.3,-1.5 -3,-2.1 -2.6,-2.5 -2.2,-2.9 -1.6,-3.2 -1,-3.5 m 0,0 h -0.5 -1.3 -2.1 -3.1 -3.8 -4.8 -5.5 -6.3 -7.1 -1.2"
     style="fill:none;stroke:#000000;stroke-width:0.70899999;stroke-linecap:round;stroke-linejoin:round;stroke-miterlimit:10;stroke-dasharray:none;stroke-opacity:1"
     id="path7110"
     inkscape:connector-curvature="0" /></g><text
   y="-495.19269"
   x="243.29657"
   transform="scale(0.99959496,-1.0004052)"
   style="font-variant:normal;font-weight:normal;font-stretch:normal;font-size:9.99594975px;font-family:'Century Gothic';-inkscape-font-specification:CenturyGothic;writing-mode:lr-tb;fill:#000000;fill-opacity:1;fill-rule:nonzero;stroke:none;stroke-width:0.99959493"
   id="text6652-8"><tspan
     style="stroke-width:0.99959493"
     x="243.29657 251.41669 256.94995"
     y="-495.19269"
     sodipodi:role="line"
     id="tspan6650-5">C1</tspan></text>


<text
   y="-442.55716"
   x="53.087307"
   transform="scale(0.99959496,-1.0004052)"
   style="font-variant:normal;font-weight:normal;font-stretch:normal;font-size:9.99594975px;font-family:'Century Gothic';-inkscape-font-specification:CenturyGothic;writing-mode:lr-tb;fill:#000000;fill-opacity:1;fill-rule:nonzero;stroke:none;stroke-width:0.99959493"
   id="text6652-8-0"><tspan
     style="stroke-width:0.99959493"
     x="53.087307"
     sodipodi:role="line"
     id="tspan6650-5-2"
     y="-442.55716">Wall angle</tspan></text>


<text
   y="-473.71732"
   x="237.85808"
   transform="scale(0.99950435,-1.0004959)"
   style="font-variant:normal;font-weight:normal;font-stretch:normal;font-size:9.99504375px;font-family:'Century Gothic';-inkscape-font-specification:CenturyGothic;writing-mode:lr-tb;fill:#000000;fill-opacity:1;fill-rule:nonzero;stroke:none;stroke-width:0.99950439"
   id="text6672-8"><tspan
     style="stroke-width:0.99950439"
     x="237.85808 247.4438"
     y="-473.71732"
     sodipodi:role="line"
     id="tspan6670-5">W</tspan></text>




<path
   style="fill:none;stroke:#000000;stroke-width:0.33986881;stroke-linecap:round;stroke-linejoin:round;stroke-miterlimit:10;stroke-dasharray:none;stroke-opacity:1"
   d="M 227.53675,435.13675 209.7,417.3"
   id="path308-7"
   inkscape:connector-curvature="0" /><path
   style="fill:#000000;fill-opacity:1;fill-rule:nonzero;stroke:none;stroke-width:0.99999994"
   d="m 227.43509,435.03509 -5.65685,-7.63676 -2.05061,2.05061"
   id="path470-9"
   inkscape:connector-curvature="0" /></g></svg>