<?xml version="1.0" encoding="UTF-8" standalone="no"?>
<!-- Created with Inkscape (http://www.inkscape.org/) -->

<svg
   xmlns:dc="http://purl.org/dc/elements/1.1/"
   xmlns:cc="http://creativecommons.org/ns#"
   xmlns:rdf="http://www.w3.org/1999/02/22-rdf-syntax-ns#"
   xmlns:svg="http://www.w3.org/2000/svg"
   xmlns="http://www.w3.org/2000/svg"
   xmlns:sodipodi="http://sodipodi.sourceforge.net/DTD/sodipodi-0.dtd"
   xmlns:inkscape="http://www.inkscape.org/namespaces/inkscape"
   version="1.1"
   id="svg6636"
   xml:space="preserve"
   width="391.09091"
   height="193.40656"
   viewBox="0 0 391.09091 193.40655"
   sodipodi:docname="thermoveri-oblong-profile3-2dims.svg"
   inkscape:version="0.92.4 (5da689c313, 2019-01-14)"><metadata
     id="metadata6642"><rdf:RDF><cc:Work
         rdf:about=""><dc:format>image/svg+xml</dc:format><dc:type
           rdf:resource="http://purl.org/dc/dcmitype/StillImage" /><dc:title></dc:title></cc:Work></rdf:RDF></metadata><defs
     id="defs6640" /><sodipodi:namedview
     pagecolor="#ffffff"
     bordercolor="#666666"
     borderopacity="1"
     objecttolerance="10"
     gridtolerance="10"
     guidetolerance="10"
     inkscape:pageopacity="0"
     inkscape:pageshadow="2"
     inkscape:window-width="1920"
     inkscape:window-height="1137"
     id="namedview6638"
     showgrid="false"
     fit-margin-top="0"
     fit-margin-left="0"
     fit-margin-right="0"
     fit-margin-bottom="0"
     inkscape:zoom="1.189304"
     inkscape:cx="-34.662063"
     inkscape:cy="127.62493"
     inkscape:window-x="-8"
     inkscape:window-y="-8"
     inkscape:window-maximized="1"
     inkscape:current-layer="g6644" /><g
     id="g6644"
     inkscape:groupmode="layer"
     inkscape:label="Oblong3"
     transform="matrix(1.3333333,0,0,-1.3333333,-402.98848,668.66047)">

















<text
   transform="matrix(0.99919,0,0,-1,406.42286,459.6909)"
   style="font-variant:normal;font-weight:normal;font-stretch:normal;font-size:10px;font-family:'Century Gothic';-inkscape-font-specification:CenturyGothic;writing-mode:lr-tb;fill:#000000;fill-opacity:1;fill-rule:nonzero;stroke:none"
   id="text6684"><tspan
     x="0 8.123415 13.658927"
     y="0"
     sodipodi:role="line"
     id="tspan6682">C2 </tspan></text>



<text
   transform="matrix(0.999289,0,0,-1,410.94313,423.9209)"
   style="font-variant:normal;font-weight:normal;font-stretch:normal;font-size:10px;font-family:'Century Gothic';-inkscape-font-specification:CenturyGothic;writing-mode:lr-tb;fill:#000000;fill-opacity:1;fill-rule:nonzero;stroke:none"
   id="text6688"><tspan
     x="0 4.616715"
     y="0"
     sodipodi:role="line"
     id="tspan6686">L </tspan></text>



<g
   id="g6876"
   transform="translate(493.8,420.7)"><path
     d="M 0,0 H -0.7 L -1.4,-0.1 -2.1,-0.3 -2.7,-0.5 -3.4,-0.7 -4,-1 -4.6,-1.4 -5.2,-1.8 -5.7,-2.2 -6.2,-2.7 -6.7,-3.2 -7.1,-3.8 -7.5,-4.4 -7.8,-5 -8.1,-5.7 -8.3,-6.3 -8.4,-7 -8.5,-7.7 -8.6,-8.4 v -0.7 l 0.1,-0.7 0.1,-0.7 0.2,-0.7 0.3,-0.6 0.3,-0.7 0.3,-0.6 0.4,-0.6 0.4,-0.5 0.5,-0.5 0.5,-0.5 0.6,-0.4 0.6,-0.4 0.6,-0.3 0.6,-0.3 0.7,-0.2 0.7,-0.2 0.7,-0.1 0.7,-0.1 h 0.7 l 0.6,0.1 0.7,0.1 0.7,0.2 0.7,0.2 0.6,0.3 0.6,0.3 0.6,0.4 0.6,0.4 0.5,0.5 0.5,0.5 0.4,0.5 0.4,0.6 0.4,0.6 0.2,0.7 0.3,0.6 0.2,0.7 0.1,0.7 0.1,0.7 v 0.7 L 8.5,-7.7 8.4,-7 8.3,-6.3 8.1,-5.7 7.8,-5 7.5,-4.4 7.1,-3.8 6.7,-3.2 6.2,-2.7 5.7,-2.2 5.2,-1.8 4.6,-1.4 4,-1 3.4,-0.7 2.8,-0.5 2.1,-0.3 1.4,-0.1 0.7,0 H 0"
     style="fill:none;stroke:#000000;stroke-width:0.50999999;stroke-linecap:butt;stroke-linejoin:miter;stroke-miterlimit:10;stroke-dasharray:none;stroke-opacity:1"
     id="path6878"
     inkscape:connector-curvature="0" /></g><g
   id="g6884"
   transform="translate(493.8,421.7)"><path
     d="M 0,0 -9.4,-1.4 V 1.4 L 0,0 m -170,0 9.3,1.4 V -1.4 L -170,0"
     style="fill:none;stroke:#000000;stroke-width:0.50999999;stroke-linecap:butt;stroke-linejoin:miter;stroke-miterlimit:10;stroke-dasharray:none;stroke-opacity:1"
     id="path6886"
     inkscape:connector-curvature="0" /></g><g
   id="g6896"
   transform="translate(569.5,491.7)"><path
     style="fill:none;stroke:#000000;stroke-width:0.50999999;stroke-linecap:butt;stroke-linejoin:miter;stroke-miterlimit:10;stroke-dasharray:none;stroke-opacity:1"
     d="M 0,0 -9.4,-1.4 V 1.4 L 0,0"
     id="path7775"
     inkscape:connector-curvature="0" /></g><g
   id="g6904"
   transform="translate(551.1,471)"><path
     style="fill:none;stroke:#000000;stroke-width:0.50999999;stroke-linecap:butt;stroke-linejoin:miter;stroke-miterlimit:10;stroke-dasharray:none;stroke-opacity:1"
     d="M 0,0 -9.4,-1.5 V 1.4 L 0,0"
     id="path7771"
     inkscape:connector-curvature="0" /></g><g
   id="g6936"
   transform="translate(320.4,457.5)"><path
     d="M 0,0 9.3,1.4 V -1.5 L 0,0 m 176.8,0 -9.3,-1.5 V 1.4 L 176.8,0"
     style="fill:none;stroke:#000000;stroke-width:0.50999999;stroke-linecap:butt;stroke-linejoin:miter;stroke-miterlimit:10;stroke-dasharray:none;stroke-opacity:1"
     id="path6938"
     inkscape:connector-curvature="0" /></g><g
   id="g6940"
   transform="translate(493.8,414.9)"><path
     d="M 0,0 V 9.6 M -170,0 V 9.6 M 0,6.8 h -170"
     style="fill:none;stroke:#000000;stroke-width:0.50999999;stroke-linecap:round;stroke-linejoin:round;stroke-miterlimit:10;stroke-dasharray:none;stroke-opacity:1"
     id="path6942"
     inkscape:connector-curvature="0" /></g><g
   id="g6952"
   transform="translate(569.5,466.2)"><path
     style="fill:none;stroke:#000000;stroke-width:0.50999999;stroke-linecap:round;stroke-linejoin:round;stroke-miterlimit:10;stroke-dasharray:none;stroke-opacity:1"
     d="M 0,0 V 28.3"
     id="path7753"
     inkscape:connector-curvature="0" /><path
     style="fill:none;stroke:#000000;stroke-width:0.50999999;stroke-linecap:round;stroke-linejoin:round;stroke-miterlimit:10;stroke-dasharray:none;stroke-opacity:1"
     d="M 0,25.5 H -58"
     id="path6954"
     inkscape:connector-curvature="0" /></g><g
   id="g6960"
   transform="translate(551.1,466.2)"><path
     style="fill:none;stroke:#000000;stroke-width:0.50999999;stroke-linecap:round;stroke-linejoin:round;stroke-miterlimit:10;stroke-dasharray:none;stroke-opacity:1"
     d="M 0,0 V 7.6"
     id="path7767"
     inkscape:connector-curvature="0" /><path
     style="fill:none;stroke:#000000;stroke-width:0.50999999;stroke-linecap:round;stroke-linejoin:round;stroke-miterlimit:10;stroke-dasharray:none;stroke-opacity:1"
     d="M 0,4.8 H -39.6"
     id="path6962"
     inkscape:connector-curvature="0" /></g><g
   id="g6992"
   transform="translate(325.5,404.2)"><path
     d="M 0,0 -1.7,7.9 M 166.6,0 l 1.7,7.9"
     style="fill:none;stroke:#c0c0c0;stroke-width:0.50999999;stroke-linecap:round;stroke-linejoin:round;stroke-miterlimit:10;stroke-dasharray:none;stroke-opacity:1"
     id="path6994"
     inkscape:connector-curvature="0" /></g><g
   id="g6996"
   transform="translate(276,463.5)"><path
     style="fill:none;stroke:#c0c0c0;stroke-width:0.50999999;stroke-linecap:round;stroke-linejoin:round;stroke-miterlimit:10;stroke-dasharray:none;stroke-opacity:1"
     d="m 293.5,-0.1 h -58"
     id="path1816"
     inkscape:connector-curvature="0" /><path
     style="fill:none;stroke:#c0c0c0;stroke-width:0.50999999;stroke-linecap:round;stroke-linejoin:round;stroke-miterlimit:10;stroke-dasharray:none;stroke-opacity:1"
     d="m 272.7,-17 2.4,16.9"
     id="path6998"
     inkscape:connector-curvature="0" /></g><g
   id="g7020"
   transform="translate(320.4,414.9)"><path
     d="M 0,0 V 45.4 M 176.8,0 V 45.4 M 0,42.6 h 176.8"
     style="fill:none;stroke:#000000;stroke-width:0.50999999;stroke-linecap:round;stroke-linejoin:round;stroke-miterlimit:10;stroke-dasharray:none;stroke-opacity:1"
     id="path7022"
     inkscape:connector-curvature="0" /></g><g
   id="g7024"
   transform="translate(493.8,421.7)"><path
     d="M 0,0 -9.4,-1.4 V 1.4 M -170,0 l 9.3,1.4 v -2.8"
     style="fill:#000000;fill-opacity:1;fill-rule:nonzero;stroke:none"
     id="path7026"
     inkscape:connector-curvature="0" /></g><g
   id="g7032"
   transform="translate(569.5,491.7)"><path
     style="fill:#000000;fill-opacity:1;fill-rule:nonzero;stroke:none"
     d="M 0,0 -9.4,-1.4 V 1.4"
     id="path7757"
     inkscape:connector-curvature="0" /></g><g
   id="g7040"
   transform="translate(551.1,471)"><path
     style="fill:#000000;fill-opacity:1;fill-rule:nonzero;stroke:none"
     d="M 0,0 -9.4,-1.5 V 1.4"
     id="path7761"
     inkscape:connector-curvature="0" /></g><g
   id="g7072"
   transform="translate(320.4,457.5)"><path
     d="M 0,0 9.3,1.4 V -1.5 M 176.8,0 167.5,-1.5 v 2.9"
     style="fill:#000000;fill-opacity:1;fill-rule:nonzero;stroke:none"
     id="path7074"
     inkscape:connector-curvature="0" /></g><g
   id="g7092"
   transform="translate(493.1,408.7)"><path
     d="M 0,0 0.2,0.7 0.5,1.4 0.9,2 1.5,2.5 2.1,2.9 2.7,3.2 3.4,3.4 h 0.7 m -176.8,0 h 0.7 l 0.7,-0.2 0.6,-0.3 0.6,-0.4 0.6,-0.5 0.4,-0.6 0.3,-0.7 0.2,-0.7 M -7.2,-33.7 0,0 m -168.6,0 7.2,-33.7 m 144.4,-12.1 1.6,0.8 1.5,1 1.4,1.1 1.3,1.3 1.1,1.4 1,1.5 0.8,1.6 0.6,1.6 0.5,1.8 m -154.2,0 0.5,-1.8 0.6,-1.6 0.8,-1.6 1,-1.5 1.1,-1.4 1.3,-1.3 1.4,-1.1 1.5,-1 1.6,-0.8 m 105.6,-6.1 3.7,0.1 3.7,0.3 3.7,0.5 3.7,0.7 3.6,0.8 3.6,1.1 3.5,1.2 3.5,1.4 m -105.6,-6.1 H -46 m -105.6,6.1 3.5,-1.4 3.5,-1.2 3.6,-1.1 3.6,-0.8 3.7,-0.7 3.7,-0.5 3.7,-0.3 3.7,-0.1 M -46,0 V 0.7 1.4 2 2.5 2.9 3.2 3.4 M -122.6,0 V 0.7 1.4 2 2.5 2.9 3.2 3.4 M -46,0 h -76.6 M -46,-33.7 V 0 m -76.6,-33.7 V 0 M -46,-33.7 h -76.6 M -46,-45.8 v 0.8 1 1.1 1.3 1.4 1.5 1.6 1.6 1.8 m -76.6,-12.1 v 0.8 1 1.1 1.3 1.4 1.5 1.6 1.6 1.8 M -46,-45.8 h -76.6 M -46,0 h 2.8 2.8 2.8 2.8 2.7 2.7 2.6 2.5 2.5 2.4 2.2 2.2 2 1.9 1.8 1.6 1.5 1.4 1.1 1.1 0.8 0.7 0.5 0.4 0.2 m -122.6,0 h -2.8 -2.8 -2.8 -2.8 -2.7 -2.7 -2.6 -2.5 -2.5 -2.4 -2.2 -2.2 -2 -1.9 -1.8 -1.6 -1.5 -1.4 -1.1 -1.1 -0.8 -0.7 -0.5 -0.4 -0.2 M -46,-33.7 h 2.6 2.5 2.6 2.5 2.5 2.4 2.4 2.3 2.1 2.1 2 1.9 1.7 1.6 1.5 1.3 1.2 1 0.9 0.6 0.6 0.3 0.2 m -115.4,0 h -2.6 -2.5 -2.6 -2.5 -2.5 -2.4 -2.4 -2.3 -2.1 -2.1 -2 -1.9 -1.7 -1.6 -1.5 -1.3 -1.2 -1 -0.9 -0.6 -0.6 -0.3 -0.2 M -46,-45.8 h 2.2 2.3 2.2 2.2 2.2 2 2 1.9 1.8 1.7 1.5 1.5 1.2 1.1 1 0.8 0.6 0.4 0.3 0.1 m -105.6,0 h -2.2 -2.3 -2.2 -2.2 -2.2 -2 -2 -1.9 -1.8 -1.7 -1.5 -1.4 -1.3 -1.1 -1 -0.8 -0.6 -0.4 -0.3 -0.1 m 105.6,0 v -1.4 -1.2 -1.1 -0.8 -0.7 -0.5 -0.3 -0.1 m -76.6,6.1 v -1.4 -1.2 -1.1 -0.8 -0.7 -0.5 -0.3 -0.1"
     style="fill:none;stroke:#000000;stroke-width:0.70899999;stroke-linecap:round;stroke-linejoin:round;stroke-miterlimit:10;stroke-dasharray:none;stroke-opacity:1"
     id="path7094"
     inkscape:connector-curvature="0" /></g><g
   id="g7096"
   transform="translate(302.5,412.1)"><path
     d="M 0,0 V 0 M 212.6,0 V 0"
     style="fill:none;stroke:#0080c0;stroke-width:0.50999999;stroke-linecap:round;stroke-linejoin:round;stroke-miterlimit:10;stroke-dasharray:none;stroke-opacity:1"
     id="path7098"
     inkscape:connector-curvature="0" /></g><g
   id="g7100"
   transform="translate(302.5,412.1)"
   style="stroke:#000000;stroke-opacity:1"><path
     d="M 0,0 H 212.6"
     style="fill:none;stroke:#000000;stroke-width:0.50999999;stroke-linecap:round;stroke-linejoin:round;stroke-miterlimit:10;stroke-dasharray:none;stroke-opacity:1"
     id="path7102"
     inkscape:connector-curvature="0" /></g><g
   id="g7112"
   transform="translate(548.7,446.5)"><path
     d="m 0,0 1.1,3.5 1.6,3.2 2.1,2.9 2.6,2.5 3,2 3.3,1.5 3.5,0.9 3.6,0.4 M -5.3,-25.1 0,0 M -39.3,16.9 H 46.5 M -35.8,0 h 5 6.7 5.9 5.1 4.3 3.5 2.6 1.7 0.9 0.1"
     style="fill:none;stroke:#000000;stroke-width:0.70899999;stroke-linecap:round;stroke-linejoin:round;stroke-miterlimit:10;stroke-dasharray:none;stroke-opacity:1"
     id="path7114"
     inkscape:connector-curvature="0" /></g>








<text
   y="-493.93195"
   x="534.75116"
   transform="scale(0.99959496,-1.0004052)"
   style="font-variant:normal;font-weight:normal;font-stretch:normal;font-size:9.99594975px;font-family:'Century Gothic';-inkscape-font-specification:CenturyGothic;writing-mode:lr-tb;fill:#000000;fill-opacity:1;fill-rule:nonzero;stroke:none;stroke-width:0.99959493"
   id="text6684-3"><tspan
     style="stroke-width:0.99959493"
     x="534.75116 542.87128 548.40454"
     y="-493.93195"
     sodipodi:role="line"
     id="tspan6682-1">C2</tspan></text>



<text
   y="-473.78369"
   x="530.19647"
   transform="scale(0.99964443,-1.0003557)"
   style="font-variant:normal;font-weight:normal;font-stretch:normal;font-size:9.9964447px;font-family:'Century Gothic';-inkscape-font-specification:CenturyGothic;writing-mode:lr-tb;fill:#000000;fill-opacity:1;fill-rule:nonzero;stroke:none;stroke-width:0.9996444"
   id="text6688-6"><tspan
     style="stroke-width:0.9996444"
     x="530.19647 534.81158"
     y="-473.78369"
     sodipodi:role="line"
     id="tspan6686-6">L</tspan></text>



<path
   style="fill:none;stroke:#000000;stroke-width:0.33986881;stroke-linecap:round;stroke-linejoin:round;stroke-miterlimit:10;stroke-dasharray:none;stroke-opacity:1"
   d="M 517.33675,436.33675 499.5,418.5"
   id="path308-7-9"
   inkscape:connector-curvature="0" /><path
   style="fill:#000000;fill-opacity:1;fill-rule:nonzero;stroke:none;stroke-width:0.99999994"
   d="m 517.23509,436.23509 -5.65685,-7.63676 -2.05061,2.05061"
   id="path470-9-5"
   inkscape:connector-curvature="0" /></g></svg>