<?xml version="1.0" encoding="UTF-8" standalone="no"?>
<!-- Created with Inkscape (http://www.inkscape.org/) -->

<svg
   xmlns:dc="http://purl.org/dc/elements/1.1/"
   xmlns:cc="http://creativecommons.org/ns#"
   xmlns:rdf="http://www.w3.org/1999/02/22-rdf-syntax-ns#"
   xmlns:svg="http://www.w3.org/2000/svg"
   xmlns="http://www.w3.org/2000/svg"
   xmlns:sodipodi="http://sodipodi.sourceforge.net/DTD/sodipodi-0.dtd"
   xmlns:inkscape="http://www.inkscape.org/namespaces/inkscape"
   version="1.1"
   id="svg9855"
   xml:space="preserve"
   width="345.93295"
   height="215.87619"
   viewBox="0 0 345.93295 215.87619"
   sodipodi:docname="thermoveri-round-profile1-2dims.svg"
   inkscape:version="0.92.4 (5da689c313, 2019-01-14)"><metadata
     id="metadata9861"><rdf:RDF><cc:Work
         rdf:about=""><dc:format>image/svg+xml</dc:format><dc:type
           rdf:resource="http://purl.org/dc/dcmitype/StillImage" /><dc:title></dc:title></cc:Work></rdf:RDF></metadata><defs
     id="defs9859" /><sodipodi:namedview
     pagecolor="#ffffff"
     bordercolor="#666666"
     borderopacity="1"
     objecttolerance="10"
     gridtolerance="10"
     guidetolerance="10"
     inkscape:pageopacity="0"
     inkscape:pageshadow="2"
     inkscape:window-width="1920"
     inkscape:window-height="1137"
     id="namedview9857"
     showgrid="false"
     fit-margin-top="0"
     fit-margin-left="0"
     fit-margin-right="0"
     fit-margin-bottom="0"
     inkscape:zoom="1.5739801"
     inkscape:cx="369.05086"
     inkscape:cy="150.22145"
     inkscape:window-x="-8"
     inkscape:window-y="-8"
     inkscape:window-maximized="1"
     inkscape:current-layer="g9863" /><g
     id="g9863"
     inkscape:groupmode="layer"
     inkscape:label="Oblong1"
     transform="matrix(1.3333333,0,0,-1.3333333,-68.4131,678.73251)"><text
       transform="matrix(0.65378885,0.75719898,0.7569,-0.65353071,98.011539,352.09056)"
       style="font-variant:normal;font-weight:normal;font-stretch:normal;font-size:9.99802589px;font-family:'Century Gothic';-inkscape-font-specification:CenturyGothic;writing-mode:lr-tb;fill:#000000;fill-opacity:1;fill-rule:nonzero;stroke:none"
       id="text9871"><tspan
         x="0 8.0327492"
         y="0"
         sodipodi:role="line"
         id="tspan9869">R </tspan></text>
<g
       id="g10091"
       transform="translate(210.6,425)"><path
         d="M 0,0 -0.1,0.8 V 1.5 L -0.3,2.2 -0.5,2.9 -0.7,3.5 -1,4.2 -1.4,4.8 -1.8,5.4 -2.3,5.9 -2.8,6.5 -3.3,6.9 -3.9,7.4 -4.5,7.7 -5.1,8.1 -5.8,8.4 -6.4,8.6 -7.1,8.8 -7.8,8.9 H -8.6 -9.3 -10 L -10.7,8.8 -11.4,8.6 -12.1,8.4 -12.7,8.1 -13.4,7.7 -14,7.4 -14.5,6.9 -15.1,6.5 -15.6,5.9 -16,5.4 -16.4,4.8 -16.8,4.2 -17.1,3.5 -17.3,2.9 -17.5,2.2 -17.7,1.5 -17.8,0.8 V 0 -0.7 l 0.1,-0.7 0.2,-0.7 0.2,-0.7 0.2,-0.6 0.3,-0.7 0.4,-0.6 0.4,-0.6 0.4,-0.5 0.5,-0.6 0.6,-0.4 0.5,-0.5 0.6,-0.4 0.7,-0.3 0.6,-0.3 0.7,-0.2 0.7,-0.2 0.7,-0.1 h 0.7 0.7 0.8 l 0.7,0.1 0.7,0.2 0.6,0.2 0.7,0.3 0.6,0.3 0.6,0.4 0.6,0.5 0.5,0.4 0.5,0.6 0.5,0.5 0.4,0.6 0.4,0.6 0.3,0.7 0.2,0.6 0.2,0.7 0.2,0.7 v 0.7 L 0,0"
         style="fill:none;stroke:#000000;stroke-width:0.50999999;stroke-linecap:butt;stroke-linejoin:miter;stroke-miterlimit:10;stroke-dasharray:none;stroke-opacity:1"
         id="path10093"
         inkscape:connector-curvature="0" /></g><g
       id="g10099"
       transform="translate(284.4,499)"><path
         style="fill:none;stroke:#000000;stroke-width:0.50999999;stroke-linecap:butt;stroke-linejoin:miter;stroke-miterlimit:10;stroke-dasharray:none;stroke-opacity:1"
         d="M 0,0 -9.4,-1.4 V 1.5 L 0,0"
         id="path10869"
         inkscape:connector-curvature="0" /></g><g
       id="g10111"
       transform="translate(267.2,482.4)"><path
         style="fill:none;stroke:#000000;stroke-width:0.50999999;stroke-linecap:butt;stroke-linejoin:miter;stroke-miterlimit:10;stroke-dasharray:none;stroke-opacity:1"
         d="M 0,0 -9.4,-1.5 V 1.4 L 0,0"
         id="path10861"
         inkscape:connector-curvature="0" /></g><g
       id="g10115"
       transform="translate(108.5,431.3)"><path
         d="M 0,0 9.3,1.4 V -1.4 L 0,0 M 93.2,0 83.8,-1.4 V 1.4 L 93.2,0 m -96.7,31.2 9.4,1.5 v -2.9 l -9.4,1.4 m 100.4,0 -9.4,-1.4 v 2.9 l 9.4,-1.5"
         style="fill:none;stroke:#000000;stroke-width:0.50999999;stroke-linecap:butt;stroke-linejoin:miter;stroke-miterlimit:10;stroke-dasharray:none;stroke-opacity:1"
         id="path10117"
         inkscape:connector-curvature="0" /></g><g
       id="g10123"
       transform="translate(108.5,444.9)"><path
         d="M 0,0 9.4,-0.7 8.8,-3.5 0,0 m -4.1,-0.5 -8,-5.2 -1.2,2.6 9.2,2.6 M 0,0 -0.5,-0.1 h -0.6 -0.5 l -0.5,-0.1 h -0.5 l -0.5,-0.1 -0.5,-0.1 -0.5,-0.1 m 18.8,-6.1 -0.8,0.8 -0.8,0.8 -0.8,0.7 -0.9,0.6 -1,0.7 -0.9,0.5 -1,0.5 -1,0.5 -1,0.4 -1.1,0.3 -1.1,0.3 -1,0.2 L 2.2,-0.2 1.1,-0.1 0,0 m -4.1,-0.5 -1.1,-0.2 -1.1,-0.4 -1,-0.3 -1,-0.5 -1,-0.5 -1,-0.5 -0.9,-0.6 -0.9,-0.7 -0.9,-0.6 -0.8,-0.8 -0.7,-0.8 -0.8,-0.8 -0.7,-0.9 -0.6,-0.9 -0.6,-0.9"
         style="fill:none;stroke:#000000;stroke-width:0.50999999;stroke-linecap:butt;stroke-linejoin:miter;stroke-miterlimit:10;stroke-dasharray:none;stroke-opacity:1"
         id="path10125"
         inkscape:connector-curvature="0" /></g><g
       id="g10127"
       transform="translate(63.1,369.8)"><path
         d="M 0,0 -1.5,9.3 H 1.4 L 0,0 M 0,55.2 1.4,45.9 H -1.5 L 0,55.2"
         style="fill:none;stroke:#000000;stroke-width:0.50999999;stroke-linecap:butt;stroke-linejoin:miter;stroke-miterlimit:10;stroke-dasharray:none;stroke-opacity:1"
         id="path10129"
         inkscape:connector-curvature="0" /></g><g
       id="g10139"
       transform="translate(126.3,380.5)"><path
         d="M 0,0 -7.2,-6.1 -5,-8 0,0"
         style="fill:none;stroke:#000000;stroke-width:0.50999999;stroke-linecap:butt;stroke-linejoin:miter;stroke-miterlimit:10;stroke-dasharray:none;stroke-opacity:1"
         id="path10141"
         inkscape:connector-curvature="0" /></g><g
       id="g10143"
       transform="translate(107.2,424.5)"><path
         d="M 0,0 -5.9,-7.4 -3.4,-8.9 0,0"
         style="fill:none;stroke:#000000;stroke-width:0.50999999;stroke-linecap:butt;stroke-linejoin:miter;stroke-miterlimit:10;stroke-dasharray:none;stroke-opacity:1"
         id="path10145"
         inkscape:connector-curvature="0" /></g><g
       id="g10151"
       transform="translate(284.4,473.5)"><path
         style="fill:none;stroke:#000000;stroke-width:0.50999999;stroke-linecap:round;stroke-linejoin:round;stroke-miterlimit:10;stroke-dasharray:none;stroke-opacity:1"
         d="M 0,0 V 28.4"
         id="path10847"
         inkscape:connector-curvature="0" /><path
         style="fill:none;stroke:#000000;stroke-width:0.50999999;stroke-linecap:round;stroke-linejoin:round;stroke-miterlimit:10;stroke-dasharray:none;stroke-opacity:1"
         d="M 0,25.5 H -57.3"
         id="path10153"
         inkscape:connector-curvature="0" /></g><g
       id="g10163"
       transform="translate(267.2,473.5)"><path
         style="fill:none;stroke:#000000;stroke-width:0.50999999;stroke-linecap:round;stroke-linejoin:round;stroke-miterlimit:10;stroke-dasharray:none;stroke-opacity:1"
         d="M 0,0 V 11.7"
         id="path10853"
         inkscape:connector-curvature="0" /><path
         style="fill:none;stroke:#000000;stroke-width:0.50999999;stroke-linecap:round;stroke-linejoin:round;stroke-miterlimit:10;stroke-dasharray:none;stroke-opacity:1"
         d="M 0,8.9 H -40.1"
         id="path10165"
         inkscape:connector-curvature="0" /></g><g
       id="g10167"
       transform="translate(108.5,427.9)"><path
         d="M 0,0 V 6.2 M 93.2,0 V 6.2 M 0,3.4 H 93.2 M -3.5,0 V 37.5 M 96.9,0 V 37.5 M -3.5,34.6 H 96.9"
         style="fill:none;stroke:#000000;stroke-width:0.50999999;stroke-linecap:round;stroke-linejoin:round;stroke-miterlimit:10;stroke-dasharray:none;stroke-opacity:1"
         id="path10169"
         inkscape:connector-curvature="0" /></g><g
       id="g10175"
       transform="translate(108.5,436.2)"><path
         d="M 0,0 V 11.5 M -2.7,1.6 -4.7,11"
         style="fill:none;stroke:#000000;stroke-width:0.50999999;stroke-linecap:round;stroke-linejoin:round;stroke-miterlimit:10;stroke-dasharray:none;stroke-opacity:1"
         id="path10177"
         inkscape:connector-curvature="0" /></g><g
       id="g10179"
       transform="translate(152.4,369.8)"><path
         d="m 0,0 h -92.2 m 28.4,55.2 H -92.2 M -89.3,0 v 55.2"
         style="fill:none;stroke:#000000;stroke-width:0.50999999;stroke-linecap:round;stroke-linejoin:round;stroke-miterlimit:10;stroke-dasharray:none;stroke-opacity:1"
         id="path10181"
         inkscape:connector-curvature="0" /></g><g
       id="g10183"
       transform="translate(109.2,421.7)"><path
         style="fill:none;stroke:#c0c0c0;stroke-width:0.50999999;stroke-linecap:round;stroke-linejoin:round;stroke-miterlimit:10;stroke-dasharray:none;stroke-opacity:1"
         d="M 0,0 -0.7,3.3"
         id="path10841"
         inkscape:connector-curvature="0" /><path
         style="fill:none;stroke:#c0c0c0;stroke-width:0.50999999;stroke-linecap:round;stroke-linejoin:round;stroke-miterlimit:10;stroke-dasharray:none;stroke-opacity:1"
         d="m 92,0 0.5,3.3"
         id="path10839"
         inkscape:connector-curvature="0" /><path
         style="fill:none;stroke:#c0c0c0;stroke-width:0.50999999;stroke-linecap:round;stroke-linejoin:round;stroke-miterlimit:10;stroke-dasharray:none;stroke-opacity:1"
         d="M -0.7,3.3 -2.9,13.4"
         id="path10837"
         inkscape:connector-curvature="0" /></g><g
       id="g10191"
       transform="translate(263.6,453.9)"><path
         style="fill:none;stroke:#c0c0c0;stroke-width:0.50999999;stroke-linecap:round;stroke-linejoin:round;stroke-miterlimit:10;stroke-dasharray:none;stroke-opacity:1"
         d="M 0,0 3.6,16.8"
         id="path10905"
         inkscape:connector-curvature="0" /><path
         style="fill:none;stroke:#c0c0c0;stroke-width:0.50999999;stroke-linecap:round;stroke-linejoin:round;stroke-miterlimit:10;stroke-dasharray:none;stroke-opacity:1"
         d="M 20.8,16.8 H -36.5"
         id="path10903"
         inkscape:connector-curvature="0" /></g><g
       id="g10211"
       transform="translate(126.3,380.5)"><path
         d="M 0,0 -28.6,-33.1 M 0,0 28.9,33.5"
         style="fill:none;stroke:#000000;stroke-width:0.50999999;stroke-linecap:round;stroke-linejoin:round;stroke-miterlimit:10;stroke-dasharray:none;stroke-opacity:1"
         id="path10213"
         inkscape:connector-curvature="0" /></g><g
       id="g10215"
       transform="translate(107.2,424.5)"><path
         d="M 0,0 -23.7,-41.6"
         style="fill:none;stroke:#000000;stroke-width:0.50999999;stroke-linecap:round;stroke-linejoin:round;stroke-miterlimit:10;stroke-dasharray:none;stroke-opacity:1"
         id="path10217"
         inkscape:connector-curvature="0" /></g><g
       id="g10223"
       transform="translate(284.4,499)"><path
         style="fill:#000000;fill-opacity:1;fill-rule:nonzero;stroke:none"
         d="M 0,0 -9.4,-1.4 V 1.5"
         id="path10865"
         inkscape:connector-curvature="0" /></g><g
       id="g10235"
       transform="translate(267.2,482.4)"><path
         style="fill:#000000;fill-opacity:1;fill-rule:nonzero;stroke:none"
         d="M 0,0 -9.4,-1.5 V 1.4"
         id="path10857"
         inkscape:connector-curvature="0" /></g><g
       id="g10239"
       transform="translate(108.5,431.3)"><path
         d="M 0,0 9.3,1.4 V -1.4 M 93.2,0 83.8,-1.4 v 2.8 m -87.3,29.8 9.4,1.5 v -2.9 m 91,1.4 -9.4,-1.4 v 2.9"
         style="fill:#000000;fill-opacity:1;fill-rule:nonzero;stroke:none"
         id="path10241"
         inkscape:connector-curvature="0" /></g><g
       id="g10247"
       transform="translate(108.5,444.9)"><path
         d="M 0,0 9.4,-0.7 8.8,-3.5 m -12.9,3 -8,-5.2 -1.2,2.6"
         style="fill:#000000;fill-opacity:1;fill-rule:nonzero;stroke:none"
         id="path10249"
         inkscape:connector-curvature="0" /></g><g
       id="g10251"
       transform="translate(63.1,369.8)"><path
         d="M 0,0 -1.5,9.3 H 1.4 M 0,55.2 1.4,45.9 h -2.9"
         style="fill:#000000;fill-opacity:1;fill-rule:nonzero;stroke:none"
         id="path10253"
         inkscape:connector-curvature="0" /></g><g
       id="g10259"
       transform="translate(126.3,380.5)"><path
         d="M 0,0 -7.2,-6.1 -5,-8"
         style="fill:#000000;fill-opacity:1;fill-rule:nonzero;stroke:none"
         id="path10261"
         inkscape:connector-curvature="0" /></g><g
       id="g10263"
       transform="translate(107.2,424.5)"><path
         d="m 0,0 -5.9,-7.4 2.5,-1.5"
         style="fill:#000000;fill-opacity:1;fill-rule:nonzero;stroke:none"
         id="path10265"
         inkscape:connector-curvature="0" /></g><g
       id="g10279"
       transform="translate(109.2,421.7)"><path
         d="M 0,0 -0.2,0.7 -0.5,1.3 -1,1.9 -1.5,2.4 -2.1,2.8 -2.8,3.1 -3.5,3.3 H -4.2 M 92,0 H 91.9 91.7 91.2 90.6 89.8 88.9 87.8 86.5 85.1 83.6 81.8 80 78 75.9 73.7 71.4 69 66.5 63.9 61.3 58.6 55.8 53.1 50.2 47.4 44.6 41.8 38.9 36.2 33.4 30.7 28.1 25.5 23 20.6 18.3 16.1 14 12 10.2 8.4 6.9 5.5 4.2 3.1 2.2 1.4 0.8 0.3 0.1 0 m 92,0 0.2,0.7 0.3,0.6 0.5,0.6 0.5,0.5 0.6,0.4 0.7,0.3 0.7,0.2 h 0.7 M 5.3,-25 0,0 m 86.7,-25 h -0.1 -0.2 -0.5 -0.6 -0.8 -0.9 -1.1 -1.2 -1.5 -1.5 -1.7 -1.8 -2 -2 H 68.6 66.4 64 61.6 59.1 56.5 53.9 51.3 48.7 46 43.3 40.7 38.1 35.5 32.9 30.4 28 25.6 23.4 21.2 19.2 17.2 15.4 13.7 12.2 10.7 9.5 8.4 7.4 6.7 6.1 5.6 5.4 5.3 m 81.4,0 5.3,25 m -5.3,-25 -1.2,-2.5 -1.3,-2.5 -1.5,-2.3 -1.6,-2.3 -1.8,-2.2 -1.9,-2 -2,-1.9 -2.2,-1.8 -2.2,-1.7 -2.4,-1.5 -2.4,-1.3 -2.5,-1.2 -2.6,-1.1 -2.7,-0.8 -2.7,-0.7 -2.7,-0.6 -2.8,-0.3 -2.8,-0.2 h -2.8 l -2.8,0.2 -2.8,0.3 -2.7,0.6 -2.7,0.7 -2.7,0.8 -2.6,1.1 -2.5,1.2 -2.4,1.3 -2.4,1.5 -2.2,1.7 -2.2,1.8 -2,1.9 -1.9,2 -1.8,2.2 -1.6,2.3 -1.5,2.3 -1.3,2.5 -1.2,2.5"
         style="fill:none;stroke:#000000;stroke-width:0.70899999;stroke-linecap:round;stroke-linejoin:round;stroke-miterlimit:10;stroke-dasharray:none;stroke-opacity:1"
         id="path10281"
         inkscape:connector-curvature="0" /></g><g
       id="g10283"
       transform="translate(91.4,425)"
       style="stroke:#000000;stroke-opacity:1"><path
         d="M 0,0 H 127.6"
         style="fill:none;stroke:#000000;stroke-width:0.50999999;stroke-linecap:round;stroke-linejoin:round;stroke-miterlimit:10;stroke-dasharray:none;stroke-opacity:1"
         id="path10285"
         inkscape:connector-curvature="0" /></g><g
       id="g10287"
       transform="translate(219,425)"><path
         d="M 0,0 V 0 M -127.6,0 V 0"
         style="fill:none;stroke:#0080c0;stroke-width:0.50999999;stroke-linecap:round;stroke-linejoin:round;stroke-miterlimit:10;stroke-dasharray:none;stroke-opacity:1"
         id="path10289"
         inkscape:connector-curvature="0" /></g><g
       id="g10303"
       transform="translate(221.5,470.7)"><path
         d="M 0,0 H 88.9 M 42.1,-16.8 H 41.6 40.3 38.2 35.1 31.3 26.5 21 14.7 7.6 3.3 m 38.8,0 1,3.4 1.6,3.3 2.2,2.9 2.6,2.5 3,2 3.3,1.5 3.5,0.9 3.6,0.3 m -26.5,-43.7 5.7,26.9"
         style="fill:none;stroke:#000000;stroke-width:0.70899999;stroke-linecap:round;stroke-linejoin:round;stroke-miterlimit:10;stroke-dasharray:none;stroke-opacity:1"
         id="path10305"
         inkscape:connector-curvature="0" /></g><text
       y="-467.35391"
       x="147.93886"
       transform="scale(0.99959496,-1.0004052)"
       style="font-variant:normal;font-weight:normal;font-stretch:normal;font-size:9.99594975px;font-family:'Century Gothic';-inkscape-font-specification:CenturyGothic;writing-mode:lr-tb;fill:#000000;fill-opacity:1;fill-rule:nonzero;stroke:none;stroke-width:0.99959493"
       id="text6652-4"><tspan
         style="stroke-width:0.99959493"
         x="147.93886 156.05901 161.59227"
         y="-467.35391"
         sodipodi:role="line"
         id="tspan6650-0">C1</tspan></text>
<text
       y="-435.47025"
       x="149.28714"
       transform="scale(0.99959496,-1.0004052)"
       style="font-variant:normal;font-weight:normal;font-stretch:normal;font-size:9.99594975px;font-family:'Century Gothic';-inkscape-font-specification:CenturyGothic;writing-mode:lr-tb;fill:#000000;fill-opacity:1;fill-rule:nonzero;stroke:none;stroke-width:0.99959493"
       id="text6652-1"><tspan
         style="stroke-width:0.99959493"
         x="149.28714"
         sodipodi:role="line"
         id="tspan6650-9"
         y="-435.47025">W</tspan></text>
<text
       y="-501.48291"
       x="250.85825"
       transform="scale(0.99959496,-1.0004052)"
       style="font-variant:normal;font-weight:normal;font-stretch:normal;font-size:9.99594975px;font-family:'Century Gothic';-inkscape-font-specification:CenturyGothic;writing-mode:lr-tb;fill:#000000;fill-opacity:1;fill-rule:nonzero;stroke:none;stroke-width:0.99959493"
       id="text6652-4-7"><tspan
         style="stroke-width:0.99959493"
         x="250.85825 258.97839 264.51166"
         y="-501.48291"
         sodipodi:role="line"
         id="tspan6650-0-5">C1</tspan></text>
<text
       y="-485.31656"
       x="244.83067"
       transform="scale(0.99959496,-1.0004052)"
       style="font-variant:normal;font-weight:normal;font-stretch:normal;font-size:9.99594975px;font-family:'Century Gothic';-inkscape-font-specification:CenturyGothic;writing-mode:lr-tb;fill:#000000;fill-opacity:1;fill-rule:nonzero;stroke:none;stroke-width:0.99959493"
       id="text6652-1-3"><tspan
         style="stroke-width:0.99959493"
         x="244.83067"
         sodipodi:role="line"
         id="tspan6650-9-6"
         y="-485.31656">W</tspan></text>
<text
       y="-447.14597"
       x="50.862057"
       transform="scale(0.99959496,-1.0004052)"
       style="font-variant:normal;font-weight:normal;font-stretch:normal;font-size:9.99594975px;font-family:'Century Gothic';-inkscape-font-specification:CenturyGothic;writing-mode:lr-tb;fill:#000000;fill-opacity:1;fill-rule:nonzero;stroke:none;stroke-width:0.99959493"
       id="text6652-7"><tspan
         style="stroke-width:0.99959493"
         x="50.862057"
         sodipodi:role="line"
         id="tspan6650-4"
         y="-447.14597">Wall angle</tspan></text>
<text
       y="-123.67953"
       x="377.47015"
       transform="matrix(0.49990633,0.86585776,0.86619037,-0.50009837,0,0)"
       style="font-variant:normal;font-weight:normal;font-stretch:normal;font-size:9.99803257px;font-family:'Century Gothic';-inkscape-font-specification:CenturyGothic;writing-mode:lr-tb;fill:#000000;fill-opacity:1;fill-rule:nonzero;stroke:none;stroke-width:0.99980801"
       id="text6656"><tspan
         style="stroke-width:0.99980801"
         x="377.47015 380.47839 385.47549 392.32153 394.32037 400.81659"
         y="-123.67953"
         sodipodi:role="line"
         id="tspan6654">r_die</tspan></text>
<text
       y="59.050835"
       x="384.12003"
       transform="matrix(0,0.99982943,1.0001706,0,0,0)"
       style="font-variant:normal;font-weight:normal;font-stretch:normal;font-size:9.99829483px;font-family:'Century Gothic';-inkscape-font-specification:CenturyGothic;writing-mode:lr-tb;fill:#000000;fill-opacity:1;fill-rule:nonzero;stroke:none;stroke-width:0.99982947"
       id="text6668"><tspan
         style="stroke-width:0.99982947"
         x="384.12003 391.55621 398.05289 404.86938 408.25766 414.35452"
         y="59.050835"
         sodipodi:role="line"
         id="tspan6666">Depth</tspan></text>
<path
       style="fill:none;stroke:#000000;stroke-width:0.33986881;stroke-linecap:round;stroke-linejoin:round;stroke-miterlimit:10;stroke-dasharray:none;stroke-opacity:1"
       d="M 226.63675,448.23675 208.8,430.4"
       id="path308-7"
       inkscape:connector-curvature="0" /><path
       style="fill:#000000;fill-opacity:1;fill-rule:nonzero;stroke:none;stroke-width:0.99999994"
       d="m 226.53509,448.13509 -5.65685,-7.63676 -2.05061,2.05061"
       id="path470-9"
       inkscape:connector-curvature="0" /></g></svg>