<?xml version="1.0" encoding="UTF-8" standalone="no"?>
<!-- Created with Inkscape (http://www.inkscape.org/) -->

<svg
   xmlns:dc="http://purl.org/dc/elements/1.1/"
   xmlns:cc="http://creativecommons.org/ns#"
   xmlns:rdf="http://www.w3.org/1999/02/22-rdf-syntax-ns#"
   xmlns:svg="http://www.w3.org/2000/svg"
   xmlns="http://www.w3.org/2000/svg"
   xmlns:sodipodi="http://sodipodi.sourceforge.net/DTD/sodipodi-0.dtd"
   xmlns:inkscape="http://www.inkscape.org/namespaces/inkscape"
   version="1.1"
   id="svg10"
   xml:space="preserve"
   width="404.69211"
   height="187.79721"
   viewBox="0 0 404.69211 187.79721"
   sodipodi:docname="thermoveri-oblong-profile2-2dims.svg"
   inkscape:version="0.92.4 (5da689c313, 2019-01-14)"><metadata
     id="metadata16"><rdf:RDF><cc:Work
         rdf:about=""><dc:format>image/svg+xml</dc:format><dc:type
           rdf:resource="http://purl.org/dc/dcmitype/StillImage" /><dc:title></dc:title></cc:Work></rdf:RDF></metadata><defs
     id="defs14" /><sodipodi:namedview
     pagecolor="#ffffff"
     bordercolor="#666666"
     borderopacity="1"
     objecttolerance="10"
     gridtolerance="10"
     guidetolerance="10"
     inkscape:pageopacity="0"
     inkscape:pageshadow="2"
     inkscape:window-width="1920"
     inkscape:window-height="1137"
     id="namedview12"
     showgrid="false"
     fit-margin-top="0"
     fit-margin-left="0"
     fit-margin-right="0"
     fit-margin-bottom="0"
     inkscape:zoom="1.1817449"
     inkscape:cx="-219.6197"
     inkscape:cy="94.079457"
     inkscape:window-x="-8"
     inkscape:window-y="-8"
     inkscape:window-maximized="1"
     inkscape:current-layer="g18" /><g
     id="g18"
     inkscape:groupmode="layer"
     inkscape:label="Oblong1"
     transform="matrix(1.3333333,0,0,-1.3333333,-415.52059,665.71779)">














<text
   transform="matrix(0.99919,0,0,-1,416.01836,444.6823)"
   style="font-variant:normal;font-weight:normal;font-stretch:normal;font-size:10px;font-family:'Century Gothic';-inkscape-font-specification:CenturyGothic;writing-mode:lr-tb;fill:#000000;fill-opacity:1;fill-rule:nonzero;stroke:none"
   id="text50"><tspan
     x="0 8.123415 13.658927"
     y="0"
     sodipodi:role="line"
     id="tspan48">C2 </tspan></text>



<text
   transform="matrix(0.999289,0,0,-1,420.53863,427.2523)"
   style="font-variant:normal;font-weight:normal;font-stretch:normal;font-size:10px;font-family:'Century Gothic';-inkscape-font-specification:CenturyGothic;writing-mode:lr-tb;fill:#000000;fill-opacity:1;fill-rule:nonzero;stroke:none"
   id="text54"><tspan
     x="0 4.616715"
     y="0"
     sodipodi:role="line"
     id="tspan52">L </tspan></text>



<text
   transform="matrix(0.999631,0,0,-1,552.63394,466.25938)"
   style="font-variant:normal;font-weight:normal;font-stretch:normal;font-size:13.22830009px;font-family:'Century Gothic';-inkscape-font-specification:CenturyGothic;writing-mode:lr-tb;fill:#000000;fill-opacity:1;fill-rule:nonzero;stroke:none"
   id="text70"><tspan
     x="0 6.1092196"
     y="0"
     sodipodi:role="line"
     id="tspan68"><tspan
   style="font-size:10.00184536px"
   id="tspan492">L</tspan> </tspan></text>



<g
   id="g234"
   transform="translate(511.6,414.1)"><path
     d="M 0,0 V 0.7 L -0.1,1.4 -0.2,2.1 -0.4,2.7 -0.7,3.4 -1,4 -1.4,4.6 -1.8,5.1 -2.2,5.7 -2.7,6.2 -3.3,6.6 -3.8,7 -4.4,7.3 -5,7.6 -5.7,7.9 -6.4,8.1 -7,8.2 -7.7,8.3 H -8.4 L -9.1,8.2 -9.8,8.1 -10.5,8 -11.1,7.8 -11.8,7.5 -12.4,7.2 -13,6.8 -13.5,6.4 -14,5.9 -14.5,5.4 -14.9,4.9 -15.3,4.3 -15.6,3.7 -15.9,3.1 -16.1,2.4 -16.3,1.7 -16.4,1 -16.5,0.4 v -0.7 l 0.1,-0.7 0.1,-0.7 0.2,-0.7 0.2,-0.6 0.3,-0.7 0.3,-0.6 0.4,-0.5 0.4,-0.6 0.5,-0.5 0.5,-0.4 0.5,-0.5 0.6,-0.3 0.6,-0.4 0.7,-0.2 0.6,-0.2 0.7,-0.2 0.7,-0.1 h 0.7 0.7 0.7 l 0.6,0.2 0.7,0.2 0.7,0.2 0.6,0.3 0.6,0.3 0.5,0.4 0.6,0.5 0.5,0.5 0.4,0.5 0.4,0.5 0.4,0.6 0.3,0.7 0.3,0.6 0.2,0.7 0.1,0.6 0.1,0.7 V 0"
     style="fill:none;stroke:#000000;stroke-width:0.50999999;stroke-linecap:butt;stroke-linejoin:miter;stroke-miterlimit:10;stroke-dasharray:none;stroke-opacity:1"
     id="path236"
     inkscape:connector-curvature="0" /></g><g
   id="g246"
   transform="translate(333.3,425)"><path
     d="M 0,0 9.3,1.5 V -1.4 L 0,0 m 170.1,0 -9.4,-1.4 V 1.5 L 170.1,0"
     style="fill:none;stroke:#000000;stroke-width:0.50999999;stroke-linecap:butt;stroke-linejoin:miter;stroke-miterlimit:10;stroke-dasharray:none;stroke-opacity:1"
     id="path248"
     inkscape:connector-curvature="0" /></g><g
   id="g250"
   transform="translate(590.5,489.4)"><path
     style="fill:none;stroke:#000000;stroke-width:0.50999999;stroke-linecap:butt;stroke-linejoin:miter;stroke-miterlimit:10;stroke-dasharray:none;stroke-opacity:1"
     d="M 0,0 -9.4,-1.5 V 1.4 L 0,0"
     id="path580"
     inkscape:connector-curvature="0" /></g><g
   id="g258"
   transform="translate(572.1,463.3)"><path
     style="fill:none;stroke:#000000;stroke-width:0.50999999;stroke-linecap:butt;stroke-linejoin:miter;stroke-miterlimit:10;stroke-dasharray:none;stroke-opacity:1"
     d="M 0,0 -9.4,-1.4 V 1.5 L 0,0"
     id="path584"
     inkscape:connector-curvature="0" /></g><g
   id="g286"
   transform="translate(329.9,442.5)"><path
     d="M 0,0 9.3,1.4 V -1.5 L 0,0 m 176.8,0 -9.3,-1.5 V 1.4 L 176.8,0"
     style="fill:none;stroke:#000000;stroke-width:0.50999999;stroke-linecap:butt;stroke-linejoin:miter;stroke-miterlimit:10;stroke-dasharray:none;stroke-opacity:1"
     id="path288"
     inkscape:connector-curvature="0" /></g><g
   id="g298"
   transform="translate(333.3,416.9)"><path
     d="M 0,0 V 11 M 170.1,0 V 11 M 0,8.1 h 170.1"
     style="fill:none;stroke:#000000;stroke-width:0.50999999;stroke-linecap:round;stroke-linejoin:round;stroke-miterlimit:10;stroke-dasharray:none;stroke-opacity:1"
     id="path300"
     inkscape:connector-curvature="0" /></g><g
   id="g302"
   transform="translate(590.5,454.6)"><path
     style="fill:none;stroke:#000000;stroke-width:0.50999999;stroke-linecap:round;stroke-linejoin:round;stroke-miterlimit:10;stroke-dasharray:none;stroke-opacity:1"
     d="M 0,0 V 37.6"
     id="path560"
     inkscape:connector-curvature="0" /><path
     style="fill:none;stroke:#000000;stroke-width:0.50999999;stroke-linecap:round;stroke-linejoin:round;stroke-miterlimit:10;stroke-dasharray:none;stroke-opacity:1"
     d="M 0,34.8 H -58"
     id="path304"
     inkscape:connector-curvature="0" /></g><g
   id="g310"
   transform="translate(572.1,454.6)"><path
     style="fill:none;stroke:#000000;stroke-width:0.50999999;stroke-linecap:round;stroke-linejoin:round;stroke-miterlimit:10;stroke-dasharray:none;stroke-opacity:1"
     d="M 0,0 V 11.6"
     id="path568"
     inkscape:connector-curvature="0" /><path
     style="fill:none;stroke:#000000;stroke-width:0.50999999;stroke-linecap:round;stroke-linejoin:round;stroke-miterlimit:10;stroke-dasharray:none;stroke-opacity:1"
     d="M 0,8.7 H -39.6"
     id="path312"
     inkscape:connector-curvature="0" /></g><g
   id="g330"
   transform="translate(334.5,408.3)"><path
     d="M 0,0 -1.2,5.8 M 167.6,0 l 1.3,5.8"
     style="fill:none;stroke:#c0c0c0;stroke-width:0.50999999;stroke-linecap:round;stroke-linejoin:round;stroke-miterlimit:10;stroke-dasharray:none;stroke-opacity:1"
     id="path332"
     inkscape:connector-curvature="0" /></g><g
   id="g338"
   transform="translate(294.6,454.1)"><path
     style="fill:none;stroke:#c0c0c0;stroke-width:0.50999999;stroke-linecap:round;stroke-linejoin:round;stroke-miterlimit:10;stroke-dasharray:none;stroke-opacity:1"
     d="m 295.9,-2.3 h -58"
     id="path1510"
     inkscape:connector-curvature="0" /><path
     style="fill:none;stroke:#c0c0c0;stroke-width:0.50999999;stroke-linecap:round;stroke-linejoin:round;stroke-miterlimit:10;stroke-dasharray:none;stroke-opacity:1"
     d="m 275.1,-19.2 2.4,16.9"
     id="path340"
     inkscape:connector-curvature="0" /></g><g
   id="g362"
   transform="translate(329.9,416.9)"><path
     d="M 0,0 V 28.4 M 176.8,0 V 28.4 M 0,25.6 h 176.8"
     style="fill:none;stroke:#000000;stroke-width:0.50999999;stroke-linecap:round;stroke-linejoin:round;stroke-miterlimit:10;stroke-dasharray:none;stroke-opacity:1"
     id="path364"
     inkscape:connector-curvature="0" /></g><g
   id="g374"
   transform="translate(333.3,425)"><path
     d="M 0,0 9.3,1.5 V -1.4 M 170.1,0 160.7,-1.4 v 2.9"
     style="fill:#000000;fill-opacity:1;fill-rule:nonzero;stroke:none"
     id="path376"
     inkscape:connector-curvature="0" /></g><g
   id="g378"
   transform="translate(590.5,489.4)"><path
     style="fill:#000000;fill-opacity:1;fill-rule:nonzero;stroke:none"
     d="M 0,0 -9.4,-1.5 V 1.4"
     id="path572"
     inkscape:connector-curvature="0" /></g><g
   id="g386"
   transform="translate(572.1,463.3)"><path
     style="fill:#000000;fill-opacity:1;fill-rule:nonzero;stroke:none"
     d="M 0,0 -9.4,-1.4 V 1.5"
     id="path576"
     inkscape:connector-curvature="0" /></g><g
   id="g410"
   transform="translate(329.9,442.5)"><path
     d="M 0,0 9.3,1.4 V -1.5 M 176.8,0 167.5,-1.5 v 2.9"
     style="fill:#000000;fill-opacity:1;fill-rule:nonzero;stroke:none"
     id="path412"
     inkscape:connector-curvature="0" /></g><g
   id="g434"
   transform="translate(312,414.1)"><path
     d="M 0,0 V 0 M 212.6,0 V 0"
     style="fill:none;stroke:#000000;stroke-width:0.50999999;stroke-linecap:round;stroke-linejoin:round;stroke-miterlimit:10;stroke-dasharray:none;stroke-opacity:1"
     id="path436"
     inkscape:connector-curvature="0" /></g><g
   id="g438"
   transform="translate(502.6,410.7)"><path
     d="M 0,0 0.2,0.7 0.5,1.4 0.9,2 1.5,2.5 2.1,2.9 2.7,3.2 3.4,3.4 h 0.7 m -176.8,0 h 0.7 l 0.7,-0.2 0.6,-0.3 0.6,-0.4 0.6,-0.5 0.4,-0.6 0.3,-0.7 0.2,-0.7 M -8.2,-38.4 0,0 m -168.6,0 8.2,-38.4 m 135.6,-13.4 1.8,0.1 1.8,0.2 1.7,0.5 1.6,0.6 1.6,0.9 1.5,0.9 1.4,1.1 1.2,1.3 1.2,1.4 0.9,1.5 0.8,1.6 0.7,1.6 0.4,1.7 m -152.2,0 0.4,-1.7 0.7,-1.6 0.8,-1.6 1,-1.5 1.1,-1.4 1.2,-1.3 1.4,-1.1 1.5,-0.9 1.6,-0.9 1.6,-0.6 1.8,-0.5 1.7,-0.2 1.8,-0.1 m 97.8,-0.1 h 2.6 2.7 2.6 2.7 2.7 l 2.6,0.1 h 2.7 2.6 m -97.8,-0.1 H -46 m -97.8,0.1 h 2.6 2.7 l 2.7,-0.1 h 2.6 2.7 2.6 2.7 2.6 m -68,55.3 H 22 M -46,0 V 0.7 1.4 2 2.5 2.9 3.2 3.4 M -122.6,0 V 0.7 1.4 2 2.5 2.9 3.2 3.4 M -46,0 h -76.6 M -46,-38.4 V 0 m -76.6,-38.4 V 0 M -46,-38.4 h -76.6 M -46,-51.8 v 0.1 0.2 0.5 0.6 0.9 0.9 1.1 1.3 1.4 1.5 1.6 1.6 1.7 m -76.6,-13.4 v 0.1 0.2 0.5 0.6 0.9 0.9 1.1 1.3 1.4 1.5 1.6 1.6 1.7 M -46,-51.8 h -76.6 M -46,0 h 2.8 2.8 2.8 2.8 2.7 2.7 2.6 2.5 2.5 2.4 2.2 2.2 2 1.9 1.8 1.6 1.5 1.4 1.1 1.1 0.8 0.7 0.5 0.4 0.2 m -122.6,0 h -2.8 -2.8 -2.8 -2.8 -2.7 -2.7 -2.6 -2.5 -2.5 -2.3 -2.3 -2.2 -2 -1.9 -1.8 -1.6 -1.5 -1.4 -1.1 -1.1 -0.8 -0.7 -0.5 -0.4 -0.2 M -46,-38.4 h 2.6 2.5 2.6 2.5 2.4 2.5 2.3 2.2 2.2 2.1 1.9 1.8 1.7 1.6 1.4 1.3 1.1 0.9 0.8 0.6 0.5 0.2 0.1 m -114.4,0 h -2.5 -2.6 -2.6 -2.5 -2.4 -2.4 -2.4 -2.2 -2.2 -2 -2 -1.8 -1.7 -1.6 -1.4 -1.3 -1.1 -0.9 -0.8 -0.6 -0.5 -0.2 -0.1 M -46,-51.8 h 1.9 2 1.9 1.9 1.7 1.8 1.6 1.5 1.4 1.2 1.1 1 0.8 0.6 0.5 0.2 0.1 m -97.8,0 h -1.9 -2 -1.9 -1.8 -1.8 -1.8 -1.6 -1.5 -1.4 -1.2 -1.1 -1 -0.8 -0.6 -0.5 -0.2 -0.1 m 97.8,0 v 0 -0.1 m -76.6,0.1 v 0 -0.1"
     style="fill:none;stroke:#000000;stroke-width:0.70899999;stroke-linecap:round;stroke-linejoin:round;stroke-miterlimit:10;stroke-dasharray:none;stroke-opacity:1"
     id="path440"
     inkscape:connector-curvature="0" /></g><g
   id="g450"
   transform="translate(569.7,434.9)"><path
     d="m 0,0 1,3.5 1.7,3.2 2.1,2.9 2.6,2.5 3,2.1 3.3,1.5 3.5,0.9 3.6,0.3 M -5,-23.4 0,0 M -37.4,16.9 H 45.1 M -33.9,0 h 3.1 6.7 5.9 5.1 4.3 3.5 2.6 1.7 0.9 0.1"
     style="fill:none;stroke:#000000;stroke-width:0.70899999;stroke-linecap:round;stroke-linejoin:round;stroke-miterlimit:10;stroke-dasharray:none;stroke-opacity:1"
     id="path452"
     inkscape:connector-curvature="0" /></g><flowRoot
   xml:space="preserve"
   id="flowRoot494"
   style="font-style:normal;font-weight:normal;font-size:40px;line-height:1.25;font-family:sans-serif;letter-spacing:0px;word-spacing:0px;fill:#000000;fill-opacity:1;stroke:none"
   transform="matrix(0.75000002,0,0,-0.75000002,69.490118,502.03304)"><flowRegion
     id="flowRegion496"><rect
       id="rect498"
       width="67.614479"
       height="48.467014"
       x="227.97449"
       y="-22.630688" /></flowRegion><flowPara
     id="flowPara500" /></flowRoot>





<text
   y="-491.72583"
   x="555.99713"
   transform="scale(0.99959496,-1.0004052)"
   style="font-variant:normal;font-weight:normal;font-stretch:normal;font-size:9.99594975px;font-family:'Century Gothic';-inkscape-font-specification:CenturyGothic;writing-mode:lr-tb;fill:#000000;fill-opacity:1;fill-rule:nonzero;stroke:none;stroke-width:0.99959493"
   id="text50-4"><tspan
     style="stroke-width:0.99959493"
     x="555.99713 564.11725 569.65051"
     y="-491.72583"
     sodipodi:role="line"
     id="tspan48-6">C2</tspan></text>






<path
   style="fill:none;stroke:#000000;stroke-width:0.33986881;stroke-linecap:round;stroke-linejoin:round;stroke-miterlimit:10;stroke-dasharray:none;stroke-opacity:1"
   d="M 528.43675,435.93675 510.6,418.1"
   id="path308-7-2"
   inkscape:connector-curvature="0" /><path
   style="fill:#000000;fill-opacity:1;fill-rule:nonzero;stroke:none;stroke-width:0.99999994"
   d="m 528.33509,435.83509 -5.65685,-7.63676 -2.05061,2.05061"
   id="path470-9-0"
   inkscape:connector-curvature="0" /></g></svg>